STARTFONT 2.1
COMMENT
COMMENT Converted from OpenType font "Q:\font stuff\winfont\AssemblerBold.ttf" by "otf2bdf 3.0".
COMMENT
FONT -FreeType-AssemblerBold-Medium-R-Normal--52-520-72-72-P-248-ISO10646-1
SIZE 52 72 72
FONTBOUNDINGBOX 62 60 -3 -11
STARTPROPERTIES 19
FOUNDRY "FreeType"
FAMILY_NAME "AssemblerBold"
WEIGHT_NAME "Medium"
SLANT "R"
SETWIDTH_NAME "Normal"
ADD_STYLE_NAME ""
PIXEL_SIZE 40
POINT_SIZE 520
RESOLUTION_X 72
RESOLUTION_Y 72
SPACING "P"
AVERAGE_WIDTH 248
CHARSET_REGISTRY "ISO10646"
CHARSET_ENCODING "1"
FONT_ASCENT 48
FONT_DESCENT 8
COPYRIGHT "2004 T.26 Digital Type Foundry www.t26.com PSID#5134705 designer: Martin Fewell / Fewell Foundry"
_OTF_FONTFILE "Q:\font stuff\winfont\AssemblerBold.ttf"
_OTF_PSNAME "AssemblerBold"
ENDPROPERTIES
CHARS 236
STARTCHAR 0020
ENCODING 32
SWIDTH 346 0
DWIDTH 18 0
BBX 0 0 0 0
BITMAP
ENDCHAR
STARTCHAR 0021
ENCODING 33
SWIDTH 173 0
DWIDTH 9 0
BBX 5 37 2 0
BITMAP
F8
F8
F8
F8
F8
F8
F8
F8
F8
F8
F8
F8
F8
F8
F8
F8
F8
F8
F8
F8
F8
F8
F8
F8
F8
F8
F8
F8
F8
00
00
00
F8
F8
F8
F8
F8
ENDCHAR
STARTCHAR 0022
ENCODING 34
SWIDTH 269 0
DWIDTH 14 0
BBX 11 9 2 28
BITMAP
FBE0
FBE0
FBE0
FBE0
FBE0
FBE0
FBE0
FBE0
FBE0
ENDCHAR
STARTCHAR 0023
ENCODING 35
SWIDTH 500 0
DWIDTH 26 0
BBX 22 22 2 4
BITMAP
1F07C0
1F07C0
1F07C0
1F07C0
FFFFFC
FFFFFC
FFFFFC
FFFFFC
FFFFFC
1F07C0
1F07C0
1F07C0
1F07C0
1F07C0
FFFFFC
FFFFFC
FFFFFC
FFFFFC
1F07C0
1F07C0
1F07C0
1F07C0
ENDCHAR
STARTCHAR 0024
ENCODING 36
SWIDTH 673 0
DWIDTH 35 0
BBX 31 44 2 -3
BITMAP
0007C000
0007C000
0007C000
0FFFFFFE
3FFFFFFE
7FFFFFFE
FFFFFFFE
FFFFFFFE
F807C000
F807C000
F807C000
F807C000
F807C000
F807C000
FE07C000
FF87C000
7FE7C000
7FFFC000
1FFFC000
03FFC000
00FFE000
003FF800
000FFE00
0007FF80
0007FFE0
0007FFF8
0007CFFC
0007C3FE
0007C1FE
0007C03E
0007C03E
0007C03E
0007C03E
0007C03E
0007C03E
FFFFFFFE
FFFFFFFE
FFFFFFFC
FFFFFFFC
FFFFFFF0
0007C000
0007C000
0007C000
0007C000
ENDCHAR
STARTCHAR 0025
ENCODING 37
SWIDTH 769 0
DWIDTH 40 0
BBX 37 37 2 -1
BITMAP
0FFC003E00
3FFF003E00
7FFF803E00
FFFFC0FE00
FFFFC0FE00
F807C1FE00
F807C1FC00
F807C3F000
F807C7E000
F807C7E000
F807CFC000
FFFFCF8000
FFFFDF8000
7FFFBF0000
7FFF3F0000
1FFE7E0000
00007C0000
0000FC0000
0001F80000
0001F80000
0003F00000
0003E1FF00
0007EFFFE0
000FDFFFF0
000FDFFFF0
001FBFFFF0
001F3E00F8
003F3E00F8
007E3E00F8
007E3E00F8
01FC3E00F8
03F83E00F8
07F83FFFF8
07F01FFFF0
07C01FFFF0
07C00FFFE0
07C007FFC0
ENDCHAR
STARTCHAR 0026
ENCODING 38
SWIDTH 653 0
DWIDTH 34 0
BBX 32 37 2 0
BITMAP
0FFFF000
3FFFFC00
7FFFFE00
FFFFFE00
FFFFFE00
F8001F00
F800FE00
F800FE00
F801FE00
F803FC00
F807F000
FE0FE000
FF1FC000
FFBF8000
7FFF0000
1FFE0000
07FE0000
03FC03F8
03FC07F0
07FE0FE0
07FF1FC0
0FFF9F80
3F9FFF00
7F8FFE00
FF07FE00
FE03FC00
F803FC00
F807FE00
F80FFF00
F80FFF80
F81F9FC0
F83F0FE0
FFFF07F0
FFFE03F8
FFFC01FC
7FF800FE
1FF0007F
ENDCHAR
STARTCHAR 0027
ENCODING 39
SWIDTH 173 0
DWIDTH 9 0
BBX 5 9 2 28
BITMAP
F8
F8
F8
F8
F8
F8
F8
F8
F8
ENDCHAR
STARTCHAR 0028
ENCODING 40
SWIDTH 211 0
DWIDTH 11 0
BBX 7 37 2 0
BITMAP
02
0E
1E
3E
3E
3E
3C
3C
7C
7C
7C
78
78
78
F8
F8
F0
F0
F0
F0
F0
F8
F8
F8
78
78
78
7C
7C
3C
3C
3C
3E
3E
1E
0E
06
ENDCHAR
STARTCHAR 0029
ENCODING 41
SWIDTH 211 0
DWIDTH 11 0
BBX 7 37 2 0
BITMAP
80
E0
F0
F8
F8
78
78
78
7C
7C
3C
3C
3C
3E
3E
3E
1E
1E
1E
1E
1E
3E
3E
3E
3C
3C
7C
7C
7C
78
78
78
F8
F8
F0
F0
C0
ENDCHAR
STARTCHAR 002A
ENCODING 42
SWIDTH 538 0
DWIDTH 28 0
BBX 24 28 2 5
BITMAP
003E00
003E00
303E0C
783E1E
FC3E3F
FE3E7F
7F3EFE
3FBFFC
1FFFF8
0FFFF0
07FFE0
03FFC0
01FF80
00FF00
00FF00
01FF80
03FFC0
07FFE0
0FFFF0
1FFFF8
3FBFFC
7F3EFE
FE3E7F
FC3E3F
783E1E
303E0C
003E00
003E00
ENDCHAR
STARTCHAR 002B
ENCODING 43
SWIDTH 500 0
DWIDTH 26 0
BBX 22 22 2 4
BITMAP
00F800
00F800
00F800
00F800
00F800
00F800
00F800
00F800
00F800
FFFFFC
FFFFFC
FFFFFC
FFFFFC
FFFFFC
00F800
00F800
00F800
00F800
00F800
00F800
00F800
00F800
ENDCHAR
STARTCHAR 002C
ENCODING 44
SWIDTH 192 0
DWIDTH 10 0
BBX 6 12 2 -5
BITMAP
FC
FC
FC
FC
FC
FC
FC
7C
7C
7C
78
40
ENDCHAR
STARTCHAR 002D
ENCODING 45
SWIDTH 500 0
DWIDTH 26 0
BBX 22 5 2 14
BITMAP
FFFFFC
FFFFFC
FFFFFC
FFFFFC
FFFFFC
ENDCHAR
STARTCHAR 002E
ENCODING 46
SWIDTH 192 0
DWIDTH 10 0
BBX 6 7 2 0
BITMAP
FC
FC
FC
FC
FC
FC
FC
ENDCHAR
STARTCHAR 002F
ENCODING 47
SWIDTH 461 0
DWIDTH 24 0
BBX 20 37 2 0
BITMAP
0001F0
0001F0
0001F0
0003F0
0007F0
000FE0
000FE0
000F80
001F80
001F00
003F00
003E00
003E00
007E00
007C00
007C00
00F800
00F800
01F800
01F000
01F000
03E000
03E000
07E000
07C000
07C000
0FC000
0F8000
1F8000
1F0000
3F0000
7F0000
FE0000
FE0000
F80000
F80000
F80000
ENDCHAR
STARTCHAR 0030
ENCODING 48
SWIDTH 673 0
DWIDTH 35 0
BBX 31 37 2 0
BITMAP
0FFFFFE0
3FFFFFF8
7FFFFFFC
FFFFFFFE
FFFFFFFE
F800003E
F800003E
F800003E
F800003E
F800003E
F800003E
F800003E
F800003E
F800003E
F800003E
F800003E
F800003E
F800003E
F800003E
F800003E
F800003E
F800003E
F800003E
F800003E
F800003E
F800003E
F800003E
F800003E
F800003E
F800003E
F800003E
F800003E
FFFFFFFE
FFFFFFFE
FFFFFFFC
7FFFFFFC
1FFFFFF0
ENDCHAR
STARTCHAR 0031
ENCODING 49
SWIDTH 307 0
DWIDTH 16 0
BBX 12 37 2 0
BITMAP
0700
0FC0
0FE0
1FE0
3FE0
7FE0
FDE0
FDE0
79E0
31E0
01E0
01E0
01E0
01E0
01E0
01E0
01E0
01E0
01E0
01E0
01E0
01E0
01E0
01E0
01E0
01E0
01E0
01E0
01E0
01E0
01E0
01E0
01F0
01F0
01F0
00F0
0030
ENDCHAR
STARTCHAR 0032
ENCODING 50
SWIDTH 673 0
DWIDTH 35 0
BBX 31 37 2 0
BITMAP
0FFFFFE0
3FFFFFF8
7FFFFFFC
FFFFFFFE
FFFFFFFE
F800003E
0000003E
0000003E
0000003E
0000003E
0000003E
000000FE
000003FE
00000FFC
00003FFC
0000FFF0
0003FF80
000FFE00
003FF800
00FFE000
03FF8000
0FFE0000
3FF80000
7FE00000
FF800000
FE000000
F8000000
F8000000
F8000000
F8000000
F8000000
F8000000
FFFFFFFE
FFFFFFFE
FFFFFFFE
7FFFFFFE
1FFFFFFE
ENDCHAR
STARTCHAR 0033
ENCODING 51
SWIDTH 673 0
DWIDTH 35 0
BBX 31 37 2 0
BITMAP
FFFFFFE0
FFFFFFF8
FFFFFFFC
FFFFFFFE
FFFFFFFE
0000003E
0000003E
0000003E
0000003E
0000003E
0000003E
000000FE
000001FE
01FFFFFC
0FFFFFF8
1FFFFFE0
1FFFFFC0
1FFFFF80
3E000000
1FFFFF80
1FFFFFC0
1FFFFFE0
0FFFFFF8
07FFFFFC
000001FE
000000FE
0000007E
0000003E
0000003E
0000003E
0000003E
0000003E
FFFFFFFE
FFFFFFFE
FFFFFFFC
FFFFFFFC
FFFFFFF0
ENDCHAR
STARTCHAR 0034
ENCODING 52
SWIDTH 673 0
DWIDTH 35 0
BBX 32 37 2 0
BITMAP
000000FF
000001FE
000003FC
000007F8
00000FE0
00001FC0
00003F80
00007F00
0001FE00
0003FC00
0007F800
000FF000
001FE000
003F8000
007F0000
00FE0000
01FC0000
07F80000
0FF00000
3FE00000
7FC00000
FF000000
FE000000
FC000000
FFFFFFF0
FFFFFFFC
FFFFFFFC
7FFFFFFE
1FFFFFFE
0000003E
0000003E
0000003E
0000003E
0000003E
0000003E
0000003E
0000003E
ENDCHAR
STARTCHAR 0035
ENCODING 53
SWIDTH 673 0
DWIDTH 35 0
BBX 31 37 2 0
BITMAP
0FFFFFFE
3FFFFFFE
7FFFFFFE
FFFFFFFE
FFFFFFFE
F8000000
F8000000
F8000000
F8000000
F8000000
F8000000
FE000000
FF800000
7FE00000
7FF80000
1FFE0000
03FF8000
00FFE000
003FF800
000FFE00
0003FF80
0000FFE0
00003FF8
00000FFC
000003FE
000000FE
0000003E
0000003E
0000003E
0000003E
0000003E
F800003E
FFFFFFFE
FFFFFFFE
7FFFFFFC
7FFFFFFC
1FFFFFF0
ENDCHAR
STARTCHAR 0036
ENCODING 54
SWIDTH 673 0
DWIDTH 35 0
BBX 31 37 2 0
BITMAP
0FFFFFFE
3FFFFFFE
7FFFFFFE
FFFFFFFE
FFFFFFFE
F8000000
F8000000
F8000000
F8000000
F8000000
F8000000
F8000000
F8000000
FFFFFFC0
FFFFFFF8
FFFFFFFC
FFFFFFFE
FFFFFFFE
F800003E
F800003E
F800003E
F800003E
F800003E
F800003E
F800003E
F800003E
F800003E
F800003E
F800003E
F800003E
F800003E
F800003E
FFFFFFFE
FFFFFFFE
FFFFFFFC
7FFFFFFC
1FFFFFF0
ENDCHAR
STARTCHAR 0037
ENCODING 55
SWIDTH 673 0
DWIDTH 35 0
BBX 31 37 2 0
BITMAP
FFFFFFE0
FFFFFFF8
FFFFFFFC
FFFFFFFE
FFFFFFFE
0000003E
000000FE
000001FE
000003FC
000007F8
000007E0
00000FC0
00001F80
00003F00
00007F00
0000FE00
0001FC00
0003F800
0007F000
0007E000
000FC000
001F8000
003F8000
007F0000
00FE0000
01FC0000
03F80000
07F00000
07E00000
0FC00000
1F800000
3F800000
3F000000
3E000000
3E000000
3E000000
3E000000
ENDCHAR
STARTCHAR 0038
ENCODING 56
SWIDTH 673 0
DWIDTH 35 0
BBX 31 37 2 0
BITMAP
0FFFFFE0
3FFFFFF8
7FFFFFFC
FFFFFFFE
FFFFFFFE
F800003E
F800003E
F800003E
F800003E
F800003E
F800003E
FE0000FE
FF0001FE
7FC003FC
7FF83FFC
1FFC7FF0
07FEFFC0
03FEFF80
003EF800
03FEFF80
07FEFFC0
0FFC7FE0
3FFC7FF8
7FF01FFC
FF0001FE
FE0000FE
F800003E
F800003E
F800003E
F800003E
F800003E
F800003E
FFFFFFFE
FFFFFFFE
FFFFFFFC
7FFFFFFC
1FFFFFF0
ENDCHAR
STARTCHAR 0039
ENCODING 57
SWIDTH 673 0
DWIDTH 35 0
BBX 31 37 2 0
BITMAP
1FFFFFE0
7FFFFFF8
7FFFFFFC
FFFFFFFE
FFFFFFFE
F800003E
F800003E
F800003E
F800003E
F800003E
F800003E
F800003E
F800003E
F800003E
F800003E
F800003E
F800003E
F800003E
F800003E
FFFFFFFE
FFFFFFFE
7FFFFFFE
7FFFFFFE
0FFFFFFE
0000003E
0000003E
0000003E
0000003E
0000003E
0000003E
0000003E
0000003E
0000003E
0000003E
0000003E
0000003E
0000003E
ENDCHAR
STARTCHAR 003A
ENCODING 58
SWIDTH 173 0
DWIDTH 9 0
BBX 5 29 2 0
BITMAP
F8
F8
F8
F8
F8
F8
00
00
00
00
00
00
00
00
00
00
00
00
00
00
00
00
00
00
F8
F8
F8
F8
F8
ENDCHAR
STARTCHAR 003B
ENCODING 59
SWIDTH 173 0
DWIDTH 9 0
BBX 5 33 2 -5
BITMAP
F8
F8
F8
F8
F8
F8
00
00
00
00
00
00
00
00
00
00
00
00
00
00
00
00
00
00
F8
F8
F8
F8
F8
F8
F8
F0
E0
ENDCHAR
STARTCHAR 003C
ENCODING 60
SWIDTH 365 0
DWIDTH 19 0
BBX 16 25 2 3
BITMAP
003F
007E
00FC
01F8
03F8
07F0
07E0
0FC0
3F80
7F00
FF00
FE00
FC00
FC00
FE00
FF00
7F80
1FC0
0FC0
07E0
03F0
01F8
01FC
00FE
007E
ENDCHAR
STARTCHAR 003D
ENCODING 61
SWIDTH 500 0
DWIDTH 26 0
BBX 22 21 2 6
BITMAP
FFFFFC
FFFFFC
FFFFFC
FFFFFC
FFFFFC
000000
000000
000000
000000
000000
000000
000000
000000
000000
000000
000000
FFFFFC
FFFFFC
FFFFFC
FFFFFC
FFFFFC
ENDCHAR
STARTCHAR 003E
ENCODING 62
SWIDTH 365 0
DWIDTH 19 0
BBX 16 25 2 3
BITMAP
FC00
7E00
3F00
3F80
1F80
0FC0
07E0
03F0
01FC
01FE
00FF
007F
003F
003F
007F
00FE
01FE
03F8
07F0
07E0
0FC0
1F80
3F00
7F00
FE00
ENDCHAR
STARTCHAR 003F
ENCODING 63
SWIDTH 673 0
DWIDTH 35 0
BBX 31 37 2 0
BITMAP
FFFFFFE0
FFFFFFF8
FFFFFFFC
FFFFFFFE
FFFFFFFE
0000003E
0000003E
0000003E
0000003E
0000003E
0000003E
0000003E
0000003E
0000003E
000001FE
000007FE
00001FFC
00003FF8
0000FFC0
0003FF80
000FFE00
003FF800
00FFE000
00FF8000
00FE0000
00F80000
00F80000
00F80000
00F80000
00F80000
00000000
00000000
00F80000
00F80000
00F80000
00F80000
00F80000
ENDCHAR
STARTCHAR 0040
ENCODING 64
SWIDTH 788 0
DWIDTH 41 0
BBX 37 37 2 0
BITMAP
00FFFFF000
07FFFFFF00
0FFFFFFF80
1FFFFFFFC0
3FFFFFFFE0
7F80000FE0
7EFFF0FBF0
FDFFF3FDF0
FBFFF3FFF8
FBFFF7FEF8
FFFFF7FEF8
FFC007FEF8
FFC007FEF8
FFC007FEF8
FFC007FEF8
FFC007FEF8
FFC007FEF8
FFC007FEF8
FFC007FEF8
FFC007FEF8
FFC007FEF8
FFC007FEF8
FFC007FEF8
FFC007FEF8
FFC007FEF8
FFC007FEF8
FFFFFFFFF8
FBFFFFFFF8
FBFFFF9FF0
FFFFFF9FF0
7DFFFF0FE0
7F00000000
7FFFFFFFF8
3FFFFFFFF8
1FFFFFFFF8
0FFFFFFFF8
01FFFFFFF8
ENDCHAR
STARTCHAR 0041
ENCODING 65
SWIDTH 673 0
DWIDTH 35 0
BBX 31 37 2 0
BITMAP
00038000
000FE000
001FF000
001FF000
003FF000
003EF800
003EF800
007EFC00
007C7C00
00FC7E00
00F83E00
01F83E00
01F01F00
01F01F00
03F01F80
03E00F80
07E00FC0
07C007C0
0FC007E0
0F8003E0
1F8003E0
1FFFFFF0
1FFFFFF0
3FFFFFF8
3FFFFFF8
7FFFFFFC
7C00007C
FC00007E
F800003E
F800003E
F800003E
F800003E
F800003E
F800003E
F800003E
F800003E
F800003E
ENDCHAR
STARTCHAR 0042
ENCODING 66
SWIDTH 673 0
DWIDTH 35 0
BBX 31 37 2 0
BITMAP
0FFFFFE0
3FFFFFF8
7FFFFFFC
FFFFFFFE
FFFFFFFE
F800003E
F800003E
F800003E
F800003E
F800003E
F800003E
F80003FE
F800FFFE
F83FFFFC
F9FFFFFC
FBFFFFF0
FBFFFE00
FFFF8000
FFC00000
FFFE0000
FBFFF800
FBFFFFE0
F9FFFFF8
F87FFFFC
F803FFFE
F8000FFE
F800003E
F800003E
F800003E
F800003E
F800003E
F800003E
FFFFFFFE
FFFFFFFE
FFFFFFFC
7FFFFFFC
1FFFFFF0
ENDCHAR
STARTCHAR 0043
ENCODING 67
SWIDTH 673 0
DWIDTH 35 0
BBX 31 37 2 0
BITMAP
0FFFFFE0
3FFFFFF8
7FFFFFFC
FFFFFFFE
FFFFFFFE
F800003E
F8000000
F8000000
F8000000
F8000000
F8000000
F8000000
F8000000
F8000000
F8000000
F8000000
F8000000
F8000000
F8000000
F8000000
F8000000
F8000000
F8000000
F8000000
F8000000
F8000000
F8000000
F8000000
F8000000
F8000000
F8000000
F800003E
FFFFFFFE
FFFFFFFE
FFFFFFFC
7FFFFFFC
1FFFFFF0
ENDCHAR
STARTCHAR 0044
ENCODING 68
SWIDTH 673 0
DWIDTH 35 0
BBX 31 37 2 0
BITMAP
0FFFFC00
3FFFFF00
7FFFFF80
FFFFFF80
FFFFFFC0
F80007E0
F80007F0
F80003F8
F80001FC
F80000FE
F800007E
F800003E
F800003E
F800003E
F800003E
F800003E
F800003E
F800003E
F800003E
F800003E
F800003E
F800003E
F800003E
F800003E
F800003E
F800003E
F800003E
F800003E
F800003E
F800003E
F800003E
F800003E
FFFFFFFE
FFFFFFFE
FFFFFFFC
7FFFFFFC
1FFFFFF0
ENDCHAR
STARTCHAR 0045
ENCODING 69
SWIDTH 634 0
DWIDTH 33 0
BBX 29 37 2 0
BITMAP
0FFFFFF8
3FFFFFF8
7FFFFFF8
FFFFFFF8
FFFFFFF8
F8000000
F8000000
F8000000
F8000000
F8000000
F8000000
FFC00000
FFFF8000
7FFFFF00
7FFFFFE0
1FFFFFF0
007FFFF8
00007FF8
000000F8
00001FF8
000FFFF8
0FFFFFF0
3FFFFFE0
7FFFFFC0
FFFFE000
FFF00000
F8000000
F8000000
F8000000
F8000000
F8000000
F8000000
FFFFFFF8
FFFFFFF8
FFFFFFF8
7FFFFFF8
1FFFFFF8
ENDCHAR
STARTCHAR 0046
ENCODING 70
SWIDTH 634 0
DWIDTH 33 0
BBX 29 37 2 0
BITMAP
0FFFFFF8
3FFFFFF8
7FFFFFF8
FFFFFFF8
FFFFFFF8
F8000000
F8000000
F8000000
F8000000
F8000000
F8000000
FFC00000
FFFF8000
7FFFFF80
7FFFFFE0
1FFFFFF0
003FFFF8
00007FF8
000000F8
3FFFFFF8
7FFFFFF8
FFFFFFF0
FFFFFFE0
FFFFFF80
F8000000
F8000000
F8000000
F8000000
F8000000
F8000000
F8000000
F8000000
F8000000
F8000000
F8000000
F8000000
F8000000
ENDCHAR
STARTCHAR 0047
ENCODING 71
SWIDTH 673 0
DWIDTH 35 0
BBX 31 37 2 0
BITMAP
0FFFFFE0
3FFFFFF8
7FFFFFFC
FFFFFFFE
FFFFFFFE
F800003E
F8000000
F8000000
F8000000
F8000000
F8000000
F8000000
F8000000
F8000000
F800C000
F801E000
F803F000
F803F800
F801FE00
F800FF00
F8007F80
F8001FE0
F8000FF8
F80007FC
F80001FE
F80000FE
F800003E
F800003E
F800003E
F800003E
F800003E
F800003E
FFFFFFFE
FFFFFFFE
FFFFFFFC
7FFFFFFC
1FFFFFF0
ENDCHAR
STARTCHAR 0048
ENCODING 72
SWIDTH 673 0
DWIDTH 35 0
BBX 31 37 2 0
BITMAP
F800003E
F800003E
F800003E
F800003E
F800003E
F800003E
F800003E
F800003E
F800003E
F800003E
F800003E
F800003E
F800003E
F800003E
F800003E
F800003E
FFFFFFFE
FFFFFFFE
FFFFFFFE
FFFFFFFE
FFFFFFFE
F800003E
F800003E
F800003E
F800003E
F800003E
F800003E
F800003E
F800003E
F800003E
F800003E
F800003E
F800003E
F800003E
F800003E
F800003E
F800003E
ENDCHAR
STARTCHAR 0049
ENCODING 73
SWIDTH 173 0
DWIDTH 9 0
BBX 5 37 2 0
BITMAP
F8
F8
F8
F8
F8
F8
F8
F8
F8
F8
F8
F8
F8
F8
F8
F8
F8
F8
F8
F8
F8
F8
F8
F8
F8
F8
F8
F8
F8
F8
F8
F8
F8
F8
F8
F8
F8
ENDCHAR
STARTCHAR 004A
ENCODING 74
SWIDTH 673 0
DWIDTH 35 0
BBX 31 37 2 0
BITMAP
00000060
00000078
0000007C
0000007E
0000007E
0000003E
0000003E
0000003E
0000003E
0000003E
0000003E
0000003E
0000003E
0000003E
0000003E
0000003E
0000003E
0000003E
0000003E
0000003E
0000003E
0000003E
0000003E
0000003E
0000003E
0000003E
0000003E
0000003E
0000003E
0000003E
0000003E
F800003E
FFFFFFFE
FFFFFFFE
7FFFFFFC
7FFFFFFC
1FFFFFF0
ENDCHAR
STARTCHAR 004B
ENCODING 75
SWIDTH 673 0
DWIDTH 35 0
BBX 31 37 2 0
BITMAP
F800003E
F800003E
F800003E
F800003E
F800003E
F800003E
F80001FE
F8000FFE
F8003FFC
F801FFF8
F80FFFE0
F83FFF00
F9FFF800
FFFFC000
FFFF0000
FFF80000
FFC00000
FE000000
F8000000
FE000000
FFC00000
FFF80000
FFFE0000
FFFFC000
FBFFF800
F87FFE00
F80FFFC0
F803FFF8
F8007FFC
F8000FFE
F80003FE
F800007E
F800003E
F800003E
F800003E
F800003E
F800003E
ENDCHAR
STARTCHAR 004C
ENCODING 76
SWIDTH 673 0
DWIDTH 35 0
BBX 31 37 2 0
BITMAP
F8000000
F8000000
F8000000
F8000000
F8000000
F8000000
F8000000
F8000000
F8000000
F8000000
F8000000
F8000000
F8000000
F8000000
F8000000
F8000000
F8000000
F8000000
F8000000
F8000000
F8000000
F8000000
F8000000
F8000000
F8000000
F8000000
F8000000
F8000000
F8000000
F8000000
F8000000
F8000000
FFFFFFFE
FFFFFFFE
FFFFFFFE
7FFFFFFE
1FFFFFFE
ENDCHAR
STARTCHAR 004D
ENCODING 77
SWIDTH 884 0
DWIDTH 46 0
BBX 42 37 2 0
BITMAP
0C0000000C00
3F0000007F00
7F8000007F80
FFC00000FFC0
FFC00000FFC0
FFC00001FFC0
FBE00001F7C0
FBE00001F7C0
FBE00003F7C0
F9F00003E7C0
F9F00007E7C0
F8F80007C7C0
F8F80007C7C0
F8F8000FC7C0
F87C000F87C0
F87C001F87C0
F83E001F07C0
F83E001F07C0
F83E003F07C0
F81F003E07C0
F81F007E07C0
F81F807C07C0
F80F807C07C0
F80F80FC07C0
F807C0F807C0
F807C1F807C0
F807E1F007C0
F803E1F007C0
F803E3F007C0
F801F3E007C0
F801F7E007C0
F801F7C007C0
F800FFC007C0
F800FFC007C0
F800FF8007C0
F8007F8007C0
F8003E0007C0
ENDCHAR
STARTCHAR 004E
ENCODING 78
SWIDTH 673 0
DWIDTH 35 0
BBX 31 37 2 0
BITMAP
0C00003E
3F00003E
7F80003E
FFC0003E
FFC0003E
FFC0003E
FFE0003E
FBF0003E
FBF0003E
F9F8003E
F8F8003E
F8FC003E
F87E003E
F87E003E
F83F003E
F81F003E
F81F803E
F80FC03E
F80FC03E
F807E03E
F803E03E
F803F03E
F801F83E
F801F83E
F800FC3E
F8007C3E
F8007E3E
F8003F3E
F8003F3E
F8001FBE
F8000FBE
F8000FFE
F80007FE
F80007FE
F80003FC
F80003FC
F80000F0
ENDCHAR
STARTCHAR 004F
ENCODING 79
SWIDTH 673 0
DWIDTH 35 0
BBX 31 37 2 0
BITMAP
0FFFFFE0
3FFFFFF8
7FFFFFFC
FFFFFFFE
FFFFFFFE
F800003E
F800003E
F800003E
F800003E
F800003E
F800003E
F800003E
F800003E
F800003E
F800003E
F800003E
F800003E
F800003E
F800003E
F800003E
F800003E
F800003E
F800003E
F800003E
F800003E
F800003E
F800003E
F800003E
F800003E
F800003E
F800003E
F800003E
FFFFFFFE
FFFFFFFE
FFFFFFFC
7FFFFFFC
1FFFFFF0
ENDCHAR
STARTCHAR 0050
ENCODING 80
SWIDTH 673 0
DWIDTH 35 0
BBX 31 37 2 0
BITMAP
0FFFFFE0
3FFFFFF8
7FFFFFFC
FFFFFFFE
FFFFFFFE
F800003E
F800003E
F800003E
F800003E
F800003E
F800003E
F800003E
F800003E
F800003E
F800003E
F800003E
F80000FE
F80007FE
F8003FFE
F800FFFC
F807FFF8
F83FFF80
F9FFFC00
FFFFE000
FFFF0000
FFF80000
FFC00000
FE000000
F8000000
F8000000
F8000000
F8000000
F8000000
F8000000
F8000000
F8000000
F8000000
ENDCHAR
STARTCHAR 0051
ENCODING 81
SWIDTH 673 0
DWIDTH 35 0
BBX 31 42 2 -6
BITMAP
0FFFFFE0
7FFFFFF8
7FFFFFFC
FFFFFFFE
FFFFFFFE
F800003E
F800003E
F800003E
F800003E
F800003E
F800003E
F800003E
F800003E
F800003E
F800003E
F800003E
F800003E
F800003E
F800003E
F800003E
F800003E
F800003E
F800003E
F800003E
F800003E
F800003E
F800003E
F800003E
F800003E
F800003E
F800003E
F800003E
FFFFFC3E
FFFFFE3E
FFFFFF3E
7FFFFFBE
1FFFFFFE
00000FFE
000007FE
000007FE
000003FC
000001F8
ENDCHAR
STARTCHAR 0052
ENCODING 82
SWIDTH 673 0
DWIDTH 35 0
BBX 31 37 2 0
BITMAP
0FFFFFE0
3FFFFFF8
7FFFFFFC
FFFFFFFE
FFFFFFFE
F800003E
F800003E
F800003E
F800003E
F800003E
F800003E
F80000FE
F80007FE
F8003FFC
F801FFFC
F80FFFF0
F87FFF00
F9FFFC00
FBFFE000
FBFF0000
FFF80000
FFE00000
FFFC0000
FBFF8000
FBFFF000
F9FFFE00
F83FFFC0
F807FFF8
F800FFFC
F8001FFE
F80003FE
F800007E
F800003E
F800003E
F800003E
F800003E
F800003E
ENDCHAR
STARTCHAR 0053
ENCODING 83
SWIDTH 673 0
DWIDTH 35 0
BBX 31 37 2 0
BITMAP
0FFFFFFE
3FFFFFFE
7FFFFFFE
FFFFFFFE
FFFFFFFE
F8000000
F8000000
F8000000
F8000000
F8000000
F8000000
FE000000
FF800000
7FE00000
7FF80000
1FFE0000
03FF8000
00FFE000
003FF800
000FFE00
0003FF80
0000FFE0
00003FF8
00000FFC
000003FE
000000FE
0000003E
0000003E
0000003E
0000003E
0000003E
0000003E
FFFFFFFE
FFFFFFFE
FFFFFFFC
FFFFFFFC
FFFFFFF0
ENDCHAR
STARTCHAR 0054
ENCODING 84
SWIDTH 673 0
DWIDTH 35 0
BBX 31 37 2 0
BITMAP
FFFFFFFE
FFFFFFFE
FFFFFFFE
FFFFFFFE
FFFFFFFE
0007C000
0007C000
0007C000
0007C000
0007C000
0007C000
0007C000
0007C000
0007C000
0007C000
0007C000
0007C000
0007C000
0007C000
0007C000
0007C000
0007C000
0007C000
0007C000
0007C000
0007C000
0007C000
0007C000
0007C000
0007C000
0007C000
0007C000
0007C000
0007C000
0007C000
0007C000
0007C000
ENDCHAR
STARTCHAR 0055
ENCODING 85
SWIDTH 673 0
DWIDTH 35 0
BBX 31 37 2 0
BITMAP
F800003E
F800003E
F800003E
F800003E
F800003E
F800003E
F800003E
F800003E
F800003E
F800003E
F800003E
F800003E
F800003E
F800003E
F800003E
F800003E
F800003E
F800003E
F800003E
F800003E
F800003E
F800003E
F800003E
F800003E
F800003E
F800003E
F800003E
F800003E
F800003E
FC00003E
FE00003E
7E00003E
3FFFFFFE
1FFFFFFE
1FFFFFFC
0FFFFFFC
07FFFFF0
ENDCHAR
STARTCHAR 0056
ENCODING 86
SWIDTH 615 0
DWIDTH 32 0
BBX 35 37 -1 0
BITMAP
F8000007E0
F8000007C0
FC00000FC0
7C00000F80
7E00000F80
3E00001F80
3E00001F00
3F00001F00
1F00003E00
1F00003E00
0F80007E00
0F80007C00
0FC0007C00
07C000FC00
07C000F800
03E001F800
03E001F000
03E001F000
01F003F000
01F003E000
01F807E000
00F807C000
00F807C000
007C0FC000
007C0F8000
007C0F8000
003E1F8000
003E1F0000
001F3F0000
001F3E0000
001F3E0000
000FFE0000
000FFC0000
000FFC0000
0007FC0000
0007F80000
0001E00000
ENDCHAR
STARTCHAR 0057
ENCODING 87
SWIDTH 884 0
DWIDTH 46 0
BBX 42 37 2 0
BITMAP
F8001E0007C0
F8007F0007C0
F8007F8007C0
F800FFC007C0
F800FFC007C0
F801FFC007C0
F801FBE007C0
F801F3E007C0
F803F3E007C0
F803E1F007C0
F807E1F007C0
F807E1F807C0
F807C0F807C0
F80FC0F807C0
F80F807C07C0
F81F807C07C0
F81F007E07C0
F81F003E07C0
F83F003E07C0
F83E001F07C0
F87E001F07C0
F87C001F87C0
F87C000F87C0
F8FC000F87C0
F8F80007C7C0
F9F80007C7C0
F9F00007E7C0
F9F00003E7C0
FBF00003E7C0
FBE00001F7C0
FFE00001F7C0
FFC00001F7C0
FFC00000FFC0
FFC00000FFC0
FF800000FF80
7F8000007F80
1E0000003E00
ENDCHAR
STARTCHAR 0058
ENCODING 88
SWIDTH 653 0
DWIDTH 34 0
BBX 38 37 -2 0
BITMAP
FE000001FC
7E000003F8
3F000003F0
1F800007E0
1FC0000FC0
0FE0001FC0
07F0003F80
03F0007F00
01F800FE00
00FC00FC00
00FE01F800
007F03F800
003F87F000
001F8FE000
000FFFC000
0007FF8000
0007FF0000
0003FE0000
0000F80000
0003FE0000
0003FF0000
0007FF8000
000FFFC000
001FCFE000
003F87F000
007F03F000
007E01F800
00FC00FC00
01F800FE00
03F8007F00
07F0003F80
0FE0001F80
0FC0000FC0
1F800007E0
3F000007F0
7F000003F8
FE000001FC
ENDCHAR
STARTCHAR 0059
ENCODING 89
SWIDTH 615 0
DWIDTH 32 0
BBX 36 37 -2 0
BITMAP
FC000003F0
7E000007E0
3F00000FC0
3F00000FC0
1F80001F80
0FC0003F00
0FC0003F00
07E0007E00
03F000FC00
03F000FC00
01F801F800
00FC03F000
00FC03F000
007E07E000
003F0FC000
003F0FC000
001F9F8000
000FFF0000
000FFF0000
0007FE0000
0007FE0000
0003FC0000
0003F80000
0001F00000
0001F00000
0001F00000
0001F00000
0001F00000
0001F00000
0001F00000
0001F00000
0001F00000
0001F00000
0001F00000
0001F00000
0001F00000
0001F00000
ENDCHAR
STARTCHAR 005A
ENCODING 90
SWIDTH 673 0
DWIDTH 35 0
BBX 31 37 2 0
BITMAP
FFFFFFE0
FFFFFFF8
FFFFFFFC
FFFFFFFE
FFFFFFFE
0000003E
0000003E
0000003E
0000003E
0000003E
0000003E
000000FE
000003FE
00000FFC
00003FFC
0000FFF0
0003FF80
000FFE00
003FF800
00FFE000
03FF8000
0FFE0000
3FF80000
7FE00000
FF800000
FE000000
F8000000
F8000000
F8000000
F8000000
F8000000
F8000000
FFFFFFFE
FFFFFFFE
FFFFFFFE
7FFFFFFE
1FFFFFFE
ENDCHAR
STARTCHAR 005B
ENCODING 91
SWIDTH 211 0
DWIDTH 11 0
BBX 7 37 2 0
BITMAP
7E
FE
FE
FE
FE
F0
F0
F0
F0
F0
F0
F0
F0
F0
F0
F0
F0
F0
F0
F0
F0
F0
F0
F0
F0
F0
F0
F0
F0
F0
F0
F0
FE
FE
FE
FE
7E
ENDCHAR
STARTCHAR 005C
ENCODING 92
SWIDTH 461 0
DWIDTH 24 0
BBX 20 37 2 0
BITMAP
F80000
F80000
F80000
FC0000
FE0000
FE0000
7F0000
1F0000
1F8000
0F8000
0F8000
07C000
07C000
07E000
03E000
03E000
01F000
01F000
01F800
00F800
00F800
007C00
007C00
007C00
003E00
003E00
003F00
001F00
001F00
000F80
000FC0
000FE0
0007F0
0007F0
0001F0
0001F0
0001F0
ENDCHAR
STARTCHAR 005D
ENCODING 93
SWIDTH 211 0
DWIDTH 11 0
BBX 7 37 2 0
BITMAP
FC
FE
FE
FE
FE
1E
1E
1E
1E
1E
1E
1E
1E
1E
1E
1E
1E
1E
1E
1E
1E
1E
1E
1E
1E
1E
1E
1E
1E
1E
1E
1E
FE
FE
FE
FE
FC
ENDCHAR
STARTCHAR 005E
ENCODING 94
SWIDTH 307 0
DWIDTH 16 0
BBX 13 10 2 38
BITMAP
0200
0700
0F80
3FC0
7FE0
FFF0
FFF8
79F0
30E0
0040
ENDCHAR
STARTCHAR 005F
ENCODING 95
SWIDTH 673 0
DWIDTH 35 0
BBX 31 5 2 0
BITMAP
FFFFFFFE
FFFFFFFE
FFFFFFFE
FFFFFFFE
FFFFFFFE
ENDCHAR
STARTCHAR 0060
ENCODING 96
SWIDTH 269 0
DWIDTH 14 0
BBX 10 10 2 38
BITMAP
3000
7800
FC00
FE00
7F00
3F80
1FC0
0FC0
0780
0300
ENDCHAR
STARTCHAR 0061
ENCODING 97
SWIDTH 615 0
DWIDTH 32 0
BBX 29 29 2 0
BITMAP
07FFC000
3FFFCFE0
7FFFDFF0
FFFFDFF0
FFFFFFF0
F8003EF8
F8003EF8
F8003EF8
F8003EF8
F8003EF8
F8003EF8
F8003EF8
F8003EF8
F8003EF8
F8003EF8
F8003EF8
F8003EF8
F8003EF8
F8003EF8
F8003EF8
F8003EF8
F8003EF8
F8003EF8
F8003EF8
FFFFFEF8
FFFFFEF8
FFFFFCF8
7FFFFCF8
1FFFF0F8
ENDCHAR
STARTCHAR 0062
ENCODING 98
SWIDTH 576 0
DWIDTH 30 0
BBX 26 37 2 0
BITMAP
0C000000
3F000000
7F800000
FFC00000
FFC00000
FFC00000
FFC00000
FFC00000
FFFFF800
FFFFFF00
FBFFFF80
FBFFFF80
F9FFFFC0
F80007C0
F80007C0
F80007C0
F80007C0
F80007C0
F80007C0
F80007C0
F80007C0
F80007C0
F80007C0
F80007C0
F80007C0
F80007C0
F80007C0
F80007C0
F80007C0
F80007C0
F80007C0
F80007C0
FFFFFFC0
FFFFFFC0
FFFFFF80
7FFFFF00
1FFFFE00
ENDCHAR
STARTCHAR 0063
ENCODING 99
SWIDTH 519 0
DWIDTH 27 0
BBX 24 29 2 0
BITMAP
07FFFF
3FFFFF
7FFFFF
FFFFFF
FFFFFF
F80000
F80000
F80000
F80000
F80000
F80000
F80000
F80000
F80000
F80000
F80000
F80000
F80000
F80000
F80000
F80000
F80000
F80000
F80000
FFFFFF
FFFFFF
FFFFFF
7FFFFF
1FFFFF
ENDCHAR
STARTCHAR 0064
ENCODING 100
SWIDTH 576 0
DWIDTH 30 0
BBX 26 37 2 0
BITMAP
00001C00
00007F00
0000FF80
0000FF80
0000FFC0
0001F7C0
0001F7C0
0001F7C0
07FFF7C0
3FFFF7C0
7FFFF7C0
FFFFE7C0
FFFFC7C0
F80007C0
F80007C0
F80007C0
F80007C0
F80007C0
F80007C0
F80007C0
F80007C0
F80007C0
F80007C0
F80007C0
F80007C0
F80007C0
F80007C0
F80007C0
F80007C0
F80007C0
F80007C0
F80007C0
FFFFFFC0
FFFFFFC0
FFFFFF80
7FFFFF00
3FFFFE00
ENDCHAR
STARTCHAR 0065
ENCODING 101
SWIDTH 557 0
DWIDTH 29 0
BBX 26 29 2 0
BITMAP
07FFF800
3FFFFF00
7FFFFF80
FFFFFF80
FFFFFF80
F80007C0
F80007C0
F80007C0
F80007C0
F80007C0
F80007C0
F8001FC0
F8007F80
F800FF80
F801FF00
F807FE00
F80FF000
F83FE000
F87FC000
F9FF0000
FBFE0000
FFF80000
FFF00000
FFC00000
FFFFFF00
FFFFFF00
FFFFFF00
7FFFFF00
1FFFFF00
ENDCHAR
STARTCHAR 0066
ENCODING 102
SWIDTH 519 0
DWIDTH 27 0
BBX 24 37 2 -9
BITMAP
07FFFF
3FFFFF
7FFFFF
FFFFFF
FFFFFF
F80000
F80000
F80000
F80000
F80000
F80000
F80000
F80000
F80000
F80000
F80000
F80000
F80000
F80000
F80000
F80000
F80000
F80000
F80000
FFFFFF
FFFFFF
FFFFFF
FFFFFF
FFFFFF
F80000
F80000
F80000
F80000
F80000
F80000
F80000
F80000
ENDCHAR
STARTCHAR 0067
ENCODING 103
SWIDTH 557 0
DWIDTH 29 0
BBX 26 37 2 -9
BITMAP
07FFF800
3FFFFF00
7FFFFF80
FFFFFF80
FFFFFF80
F80007C0
F80007C0
F80007C0
F80007C0
F80007C0
F80007C0
F80007C0
F80007C0
F80007C0
F80007C0
F80007C0
F80007C0
F80007C0
F80007C0
F80007C0
F80007C0
F80007C0
F80007C0
F80007C0
FFFFFFC0
FFFFFFC0
FFFFFFC0
7FFFFFC0
1FFFFFC0
000007C0
000007C0
000007C0
3FFFFFC0
3FFFFF80
3FFFFF80
3FFFFF00
3FFFFE00
ENDCHAR
STARTCHAR 0068
ENCODING 104
SWIDTH 557 0
DWIDTH 29 0
BBX 26 37 2 0
BITMAP
0C000000
3F000000
7F800000
FFC00000
FFC00000
FFC00000
FFC00000
FFC00000
FFFFF800
FFFFFF00
FBFFFF80
FBFFFF80
F9FFFFC0
F80007C0
F80007C0
F80007C0
F80007C0
F80007C0
F80007C0
F80007C0
F80007C0
F80007C0
F80007C0
F80007C0
F80007C0
F80007C0
F80007C0
F80007C0
F80007C0
F80007C0
F80007C0
F80007C0
F80007C0
F80007C0
F80007C0
F80007C0
F80007C0
ENDCHAR
STARTCHAR 0069
ENCODING 105
SWIDTH 173 0
DWIDTH 9 0
BBX 5 37 2 0
BITMAP
F8
F8
F8
F8
F8
00
00
00
F8
F8
F8
F8
F8
F8
F8
F8
F8
F8
F8
F8
F8
F8
F8
F8
F8
F8
F8
F8
F8
F8
F8
F8
F8
F8
F8
F8
F8
ENDCHAR
STARTCHAR 006A
ENCODING 106
SWIDTH 173 0
DWIDTH 9 0
BBX 7 45 0 -9
BITMAP
3E
3E
3E
3E
3E
00
00
00
3E
3E
3E
3E
3E
3E
3E
3E
3E
3E
3E
3E
3E
3E
3E
3E
3E
3E
3E
3E
3E
3E
3E
3E
3E
3E
3E
3E
3E
3E
3E
3E
FE
FE
FC
FC
F0
ENDCHAR
STARTCHAR 006B
ENCODING 107
SWIDTH 557 0
DWIDTH 29 0
BBX 26 37 2 0
BITMAP
F8000000
F8000000
F8000000
F8000000
F8000000
F8000000
F8000000
F8000000
FFFFFFC0
FFFFFFC0
FFFFFFC0
FFFFFFC0
FFFFFFC0
F8000000
FE000000
FF000000
FF800000
FFC00000
FFE00000
FFF80000
FBFC0000
F8FE0000
F87F0000
F83F8000
F81FE000
F80FF000
F807F800
F801FE00
F800FF80
F8007F80
F8003F80
F8001FC0
F80007C0
F80007C0
F80007C0
F80007C0
F80007C0
ENDCHAR
STARTCHAR 006C
ENCODING 108
SWIDTH 173 0
DWIDTH 9 0
BBX 5 37 2 0
BITMAP
F8
F8
F8
F8
F8
F8
F8
F8
F8
F8
F8
F8
F8
F8
F8
F8
F8
F8
F8
F8
F8
F8
F8
F8
F8
F8
F8
F8
F8
F8
F8
F8
F8
F8
F8
F8
F8
ENDCHAR
STARTCHAR 006D
ENCODING 109
SWIDTH 769 0
DWIDTH 40 0
BBX 37 28 2 0
BITMAP
3F00000FC0
7F80001FE0
FFC0001FF0
FFC0003FF0
FFC0003EF8
FFE0003EF8
FBE0007EF8
FBF0007CF8
F9F000FCF8
F9F000F8F8
F9F801F8F8
F8F801F8F8
F8FC01F0F8
F87C03F0F8
F87E03E0F8
F83E07E0F8
F83E07C0F8
F83F0FC0F8
F81F0FC0F8
F81F8F80F8
F80F9F80F8
F80FDF00F8
F807FF00F8
F807FE00F8
F807FE00F8
F803FE00F8
F803FC00F8
F800F800F8
ENDCHAR
STARTCHAR 006E
ENCODING 110
SWIDTH 557 0
DWIDTH 29 0
BBX 26 29 2 0
BITMAP
07FFF800
3FFFFF00
7FFFFF80
FFFFFF80
FFFFFF80
F80007C0
F80007C0
F80007C0
F80007C0
F80007C0
F80007C0
F80007C0
F80007C0
F80007C0
F80007C0
F80007C0
F80007C0
F80007C0
F80007C0
F80007C0
F80007C0
F80007C0
F80007C0
F80007C0
F80007C0
F80007C0
F80007C0
F80007C0
F80007C0
ENDCHAR
STARTCHAR 006F
ENCODING 111
SWIDTH 557 0
DWIDTH 29 0
BBX 26 29 2 0
BITMAP
07FFF800
3FFFFF00
7FFFFF80
FFFFFF80
FFFFFF80
F80007C0
F80007C0
F80007C0
F80007C0
F80007C0
F80007C0
F80007C0
F80007C0
F80007C0
F80007C0
F80007C0
F80007C0
F80007C0
F80007C0
F80007C0
F80007C0
F80007C0
F80007C0
F80007C0
FFFFFFC0
FFFFFF80
FFFFFF80
7FFFFF00
1FFFFE00
ENDCHAR
STARTCHAR 0070
ENCODING 112
SWIDTH 557 0
DWIDTH 29 0
BBX 25 37 2 -9
BITMAP
07FFF800
3FFFFF00
7FFFFF00
FFFFFF80
FFFFFF80
F8000780
F8000780
F8000780
F8000780
F8000780
F8000780
F8000780
F8000780
F8000780
F8000780
F8000780
F8000780
F8000780
F8000780
F8000780
F8000780
F8000780
F8000780
F8000780
F8FFFF80
F9FFFF80
FBFFFF80
FBFFFF00
FFFFFE00
FFC00000
FFC00000
FFC00000
FFC00000
FFC00000
FFC00000
7F800000
3F000000
ENDCHAR
STARTCHAR 0071
ENCODING 113
SWIDTH 557 0
DWIDTH 29 0
BBX 25 37 2 -9
BITMAP
07FFF000
3FFFFE00
7FFFFF00
FFFFFF80
FFFFFF80
F8000780
F8000780
F8000780
F8000780
F8000780
F8000780
F8000780
F8000780
F8000780
F8000780
F8000780
F8000780
F8000780
F8000780
F8000780
F8000780
F8000780
F8000780
F8000780
FFFF8780
FFFFE780
FFFFE780
7FFFF780
1FFFF780
0001F780
0001F780
0001F780
0001FF80
0001FF80
0000FF80
0000FF00
00003E00
ENDCHAR
STARTCHAR 0072
ENCODING 114
SWIDTH 519 0
DWIDTH 27 0
BBX 24 29 2 0
BITMAP
07FFFF
3FFFFF
7FFFFF
FFFFFF
FFFFFF
F80000
F80000
F80000
F80000
F80000
F80000
F80000
F80000
F80000
F80000
F80000
F80000
F80000
F80000
F80000
F80000
F80000
F80000
F80000
F80000
F80000
F80000
F80000
F80000
ENDCHAR
STARTCHAR 0073
ENCODING 115
SWIDTH 557 0
DWIDTH 29 0
BBX 26 29 2 0
BITMAP
07FFFFC0
3FFFFFC0
7FFFFFC0
FFFFFFC0
FFFFFFC0
F8000000
F8000000
F8000000
FC000000
FF000000
FFC00000
7FF00000
3FFC0000
07FF0000
01FFC000
007FF000
001FFC00
0007FF00
0001FF80
00007F80
00001FC0
000007C0
000007C0
000007C0
FFFFFFC0
FFFFFF80
FFFFFF80
FFFFFF00
FFFFFE00
ENDCHAR
STARTCHAR 0074
ENCODING 116
SWIDTH 519 0
DWIDTH 27 0
BBX 24 37 2 0
BITMAP
F80000
F80000
F80000
F80000
F80000
F80000
F80000
F80000
FFFFFF
FFFFFF
FFFFFF
FFFFFF
FFFFFF
F80000
F80000
F80000
F80000
F80000
F80000
F80000
F80000
F80000
F80000
F80000
F80000
F80000
F80000
F80000
F80000
F80000
F80000
F80000
FFFFFF
FFFFFF
FFFFFF
7FFFFF
1FFFFF
ENDCHAR
STARTCHAR 0075
ENCODING 117
SWIDTH 557 0
DWIDTH 29 0
BBX 26 29 2 0
BITMAP
F80007C0
F80007C0
F80007C0
F80007C0
F80007C0
F80007C0
F80007C0
F80007C0
F80007C0
F80007C0
F80007C0
F80007C0
F80007C0
F80007C0
F80007C0
F80007C0
F80007C0
F80007C0
F80007C0
F80007C0
F80007C0
F80007C0
F80007C0
F80007C0
FFFFFFC0
FFFFFF80
FFFFFF80
7FFFFF00
1FFFFE00
ENDCHAR
STARTCHAR 0076
ENCODING 118
SWIDTH 480 0
DWIDTH 25 0
BBX 28 29 -1 0
BITMAP
F80003F0
F80003E0
FC0003E0
7C0007E0
7C0007C0
3E0007C0
3E000FC0
3F000F80
1F001F80
1F001F00
1F801F00
0F803F00
0F803E00
07C03E00
07C07E00
07E07C00
03E0FC00
03E0F800
03F0F800
01F1F800
01F1F000
00F9F000
00FBF000
00FFE000
007FE000
007FE000
007FC000
003F8000
001F0000
ENDCHAR
STARTCHAR 0077
ENCODING 119
SWIDTH 769 0
DWIDTH 40 0
BBX 37 29 2 0
BITMAP
F8000000F8
F801F800F8
F803FC00F8
F807FE00F8
F807FE00F8
F807FF00F8
F80FFF00F8
F80F9F00F8
F81F9F80F8
F81F8F80F8
F81F0FC0F8
F83F07C0F8
F83E07E0F8
F87E03E0F8
F87C03E0F8
F8FC03F0F8
F8FC01F0F8
F8F801F8F8
F9F800F8F8
F9F000FCF8
FBF0007CF8
FBE0007CF8
FFE0007EF8
FFE0003EF8
FFC0003FF8
FFC0001FF0
FF80001FF0
7F80000FE0
1E000007C0
ENDCHAR
STARTCHAR 0078
ENCODING 120
SWIDTH 480 0
DWIDTH 25 0
BBX 29 29 -2 0
BITMAP
FC0001F8
7E0003F0
3F0007E0
3F800FE0
1F800FC0
0FC01F80
07E03F00
07F07F00
03F07E00
01F8FC00
00FFF800
00FFF000
007FF000
003FE000
000F8000
003FE000
007FF000
007FF000
00FFF800
01F8FC00
03F8FE00
03F07E00
07E03F00
0FC01F80
1FC01FC0
1F800FC0
3F0007E0
7E0003F0
FE0003F8
ENDCHAR
STARTCHAR 0079
ENCODING 121
SWIDTH 557 0
DWIDTH 29 0
BBX 26 37 2 -9
BITMAP
F80007C0
F80007C0
F80007C0
F80007C0
F80007C0
F80007C0
F80007C0
F80007C0
F80007C0
F80007C0
F80007C0
F80007C0
F80007C0
F80007C0
F80007C0
F80007C0
F80007C0
F80007C0
F80007C0
F80007C0
F80007C0
F80007C0
F80007C0
F80007C0
FFFF87C0
FFFFE7C0
FFFFE7C0
7FFFF7C0
1FFFF7C0
0001F7C0
0001F7C0
0001F7C0
0001FFC0
0001FF80
0000FF80
0000FF00
00003E00
ENDCHAR
STARTCHAR 007A
ENCODING 122
SWIDTH 557 0
DWIDTH 29 0
BBX 26 29 2 0
BITMAP
FFFFF800
FFFFFF00
FFFFFF80
FFFFFF80
FFFFFF80
000007C0
000007C0
000007C0
00000FC0
00003F80
0000FF80
0003FF00
000FFE00
003FF800
00FFE000
03FF8000
1FFE0000
7FF80000
7FE00000
FF800000
FE000000
F8000000
F8000000
F8000000
FFFFFFC0
FFFFFFC0
FFFFFFC0
7FFFFFC0
1FFFFFC0
ENDCHAR
STARTCHAR 007B
ENCODING 123
SWIDTH 269 0
DWIDTH 14 0
BBX 10 37 2 0
BITMAP
0040
03C0
07C0
07C0
07C0
0780
0F80
0F80
0F80
0F00
1F00
1F00
1F00
1E00
3E00
7E00
FE00
FE00
F000
FC00
FE00
FE00
7E00
1E00
1F00
1F00
1F00
0F00
0F00
0F80
0F80
0780
07C0
07C0
07C0
03C0
01C0
ENDCHAR
STARTCHAR 007C
ENCODING 124
SWIDTH 173 0
DWIDTH 9 0
BBX 5 37 2 0
BITMAP
F8
F8
F8
F8
F8
F8
F8
F8
F8
F8
F8
F8
F8
F8
F8
F8
F8
F8
F8
F8
F8
F8
F8
F8
F8
F8
F8
F8
F8
F8
F8
F8
F8
F8
F8
F8
F8
ENDCHAR
STARTCHAR 007D
ENCODING 125
SWIDTH 269 0
DWIDTH 14 0
BBX 10 37 2 0
BITMAP
8000
E000
F000
F800
F800
7800
7800
7C00
7C00
3C00
3C00
3E00
3E00
3E00
1F00
1F80
1FC0
1FC0
07C0
1FC0
1FC0
1F80
1F00
3E00
3E00
3E00
3C00
7C00
7C00
7C00
7C00
7800
F800
F800
F000
F000
C000
ENDCHAR
STARTCHAR 007E
ENCODING 126
SWIDTH 653 0
DWIDTH 34 0
BBX 30 14 2 14
BITMAP
03F80000
07FC0000
07FC0020
0FFE0070
1FBF00F8
3FBF81FC
7F1FC3F8
FE0FE7F0
FC07FFE0
7803FFC0
3001FF80
0001FF80
0000FF00
00007E00
ENDCHAR
STARTCHAR 00A0
ENCODING 160
SWIDTH 173 0
DWIDTH 9 0
BBX 0 0 0 0
BITMAP
ENDCHAR
STARTCHAR 00A1
ENCODING 161
SWIDTH 173 0
DWIDTH 9 0
BBX 5 37 2 0
BITMAP
F8
F8
F8
F8
F8
00
00
00
F8
F8
F8
F8
F8
F8
F8
F8
F8
F8
F8
F8
F8
F8
F8
F8
F8
F8
F8
F8
F8
F8
F8
F8
F8
F8
F8
F8
F8
ENDCHAR
STARTCHAR 00A2
ENCODING 162
SWIDTH 519 0
DWIDTH 27 0
BBX 24 36 2 -3
BITMAP
003E00
003E00
003E00
07FFFF
3FFFFF
7FFFFF
FFFFFF
FFFFFF
F83E00
F83E00
F83E00
F83E00
F83E00
F83E00
F83E00
F83E00
F83E00
F83E00
F83E00
F83E00
F83E00
F83E00
F83E00
F83E00
F83E00
F83E00
F83E00
FFFFFF
FFFFFF
FFFFFF
7FFFFF
1FFFFF
003E00
003E00
003E00
003E00
ENDCHAR
STARTCHAR 00A3
ENCODING 163
SWIDTH 673 0
DWIDTH 35 0
BBX 31 37 2 0
BITMAP
0001FFFE
000FFFFE
000FFFFE
001FFFFE
001FFFFE
001F0000
001F0000
001F0000
001F0000
001F0000
001F0000
001FC000
001FF800
001FFF00
000FFFC0
0003FFE0
00007FF0
00000FF0
000001F0
000007F0
00001FF0
00003FF0
0000FFE0
0003FF80
000FFE00
003FF800
00FFE000
03FF8000
07FE0000
0FF80000
0FF00000
0FC00000
FFFFFFFE
FFFFFFFE
FFFFFFFE
FFFFFFFE
FFFFFFFE
ENDCHAR
STARTCHAR 00A4
ENCODING 164
SWIDTH 730 0
DWIDTH 38 0
BBX 35 37 2 0
BITMAP
01FFFFFE00
07FFFFFF80
0FFFFFFFC0
0FFFFFFFC0
1FFFFFFFC0
1F000003E0
1F00000000
1F00000000
1F00000000
1F00000000
1F00000000
1F00000000
FFFFFFE000
FFFFFFE000
FFFFFFE000
FFFFFFE000
FFFFFFE000
1F00000000
1F00000000
1F00000000
FFFFFFE000
FFFFFFE000
FFFFFFE000
FFFFFFE000
FFFFFFE000
1F00000000
1F00000000
1F00000000
1F00000000
1F00000000
1F00000000
1F000003E0
1FFFFFFFC0
1FFFFFFFC0
0FFFFFFFC0
07FFFFFF80
03FFFFFF00
ENDCHAR
STARTCHAR 00A5
ENCODING 165
SWIDTH 615 0
DWIDTH 32 0
BBX 36 37 -2 0
BITMAP
FC000003F0
7E000007E0
3F00000FC0
3F00000FC0
1F80001F80
0FC0003F00
0FC0003F00
07E0007E00
03F000FC00
03F000FC00
01F801F800
00FC03F000
00FC03F000
007E07E000
003F0FC000
003F0FC000
01FF9FF800
01FFDFF800
01FFFFF800
01FFFFF800
01FFFFF800
0003FC0000
01FFFFF800
01FFFFF800
01FFFFF800
01FFFFF800
01FFFFF800
0000F80000
0000F80000
0000F80000
0000F80000
0000F80000
0000F80000
0000F80000
0000F80000
0000F80000
0000F80000
ENDCHAR
STARTCHAR 00A7
ENCODING 167
SWIDTH 673 0
DWIDTH 35 0
BBX 31 48 2 -11
BITMAP
0FFFFFFE
3FFFFFFE
7FFFFFFE
FFFFFFFE
FFFFFFFE
F8000000
F8000000
F8000000
F8000000
F8000000
F8000000
FE000000
FF800000
FFE00000
FFF80000
FFFE0000
FFFF0000
F9FFC000
F87FF000
F81FFC00
F807FF00
F801FFC0
FE007FF8
FF801FFC
7FE007FE
3FF801FE
0FFE007E
03FF803E
00FFE03E
003FF83E
000FFE3E
0003FFBE
0000FFFE
00003FFE
00000FFE
000003FE
000000FE
0000003E
0000003E
0000003E
0000003E
0000003E
0000003E
FFFFFFFE
FFFFFFFE
FFFFFFFC
FFFFFFFC
FFFFFFF0
ENDCHAR
STARTCHAR 00A8
ENCODING 168
SWIDTH 307 0
DWIDTH 16 0
BBX 12 5 2 37
BITMAP
F9F0
F9F0
F9F0
F9F0
F9F0
ENDCHAR
STARTCHAR 00A9
ENCODING 169
SWIDTH 673 0
DWIDTH 35 0
BBX 31 37 2 -1
BITMAP
0FFFFFE0
3FFFFFF8
7FFFFFFC
FFFFFFFE
FFFFFFFE
F800003E
F81FFFBE
F8FFFFBE
F9FFFFBE
F9FFFFBE
FBFFFFBE
FBE0003E
FBE0003E
FBE0003E
FBE0003E
FBE0003E
FBE0003E
FBE0003E
FBE0003E
FBE0003E
FBE0003E
FBE0003E
FBE0003E
FBE0003E
FBE0003E
FBE0003E
FBFFFFBE
FBFFFFBE
F9FFFFBE
F8FFFFBE
F87FFFBE
F800003E
FFFFFFFE
FFFFFFFE
FFFFFFFC
7FFFFFFC
1FFFFFF0
ENDCHAR
STARTCHAR 00AA
ENCODING 170
SWIDTH 615 0
DWIDTH 32 0
BBX 23 31 6 3
BITMAP
1FF0F0
7FF3F8
FFF7FC
FFF7FE
FFF7FE
F807BE
F807BE
F807BE
F807BE
F807BE
F807BE
F807BE
F807BE
F807BE
F807BE
F807BE
F807BE
F807BE
F807BE
FFFFBE
FFFFBE
FFFFBE
7FFF3E
0FFC3E
000000
000000
FFFFFE
FFFFFE
FFFFFE
FFFFFE
FFFFFE
ENDCHAR
STARTCHAR 00AB
ENCODING 171
SWIDTH 519 0
DWIDTH 27 0
BBX 23 20 2 5
BITMAP
00FCFE
01F9FC
03F1F8
07F3F0
0FE7E0
1FCFC0
7FBFC0
FF7F80
FE7F00
FCFE00
FCFE00
FE7E00
FF7F00
7FFF80
3F9FC0
0FC7E0
07E7F0
03F3F8
01F9FC
01FCFC
ENDCHAR
STARTCHAR 00AC
ENCODING 172
SWIDTH 500 0
DWIDTH 26 0
BBX 22 8 2 9
BITMAP
FFFFFC
FFFFFC
FFFFFC
FFFFFC
FFFFFC
00007C
00007C
00007C
ENDCHAR
STARTCHAR 00AE
ENCODING 174
SWIDTH 673 0
DWIDTH 35 0
BBX 31 37 2 0
BITMAP
0FFFFFE0
3FFFFFF8
7FFFFFFC
FFFFFFFE
FFFFFFFE
F800003E
F83FF83E
F9FFFF3E
FBFFFFBE
FBFFFFBE
FBFFFFBE
FBE007FE
FBE007FE
FBE01FFE
FBE0FFBE
FBE7FFBE
FBEFFF3E
FBFFFE3E
FBFFF03E
FBFF803E
FBFFC03E
FBFFF03E
FBEFFC3E
FBEFFF3E
FBE3FFBE
FBE07FBE
FBE03FBE
FBE007FE
FBE007FE
FBE007FE
FBE007FE
F800003E
FFFFFFFE
FFFFFFFE
FFFFFFFC
7FFFFFFC
1FFFFFF0
ENDCHAR
STARTCHAR 00AF
ENCODING 175
SWIDTH 230 0
DWIDTH 12 0
BBX 9 3 2 37
BITMAP
FF80
FF80
FF80
ENDCHAR
STARTCHAR 00B0
ENCODING 176
SWIDTH 403 0
DWIDTH 21 0
BBX 17 15 2 25
BITMAP
0FF800
3FFF00
7FFF00
FFFF80
FFFF80
F80780
F80780
F80780
F80780
F80780
FFFF80
FFFF80
FFFF80
7FFF00
3FFE00
ENDCHAR
STARTCHAR 00B1
ENCODING 177
SWIDTH 500 0
DWIDTH 26 0
BBX 22 29 2 0
BITMAP
00F800
00F800
00F800
00F800
00F800
00F800
00F800
00F800
00F800
FFFFFC
FFFFFC
FFFFFC
FFFFFC
FFFFFC
00F800
00F800
00F800
00F800
00F800
00F800
00F800
00F800
000000
000000
FFFFFC
FFFFFC
FFFFFC
FFFFFC
FFFFFC
ENDCHAR
STARTCHAR 00B4
ENCODING 180
SWIDTH 134 0
DWIDTH 7 0
BBX 9 9 -1 38
BITMAP
0200
0700
0F80
1F80
3F00
7E00
FC00
7800
3000
ENDCHAR
STARTCHAR 00B5
ENCODING 181
SWIDTH 846 0
DWIDTH 44 0
BBX 43 37 -1 0
BITMAP
0001C0000E00
0007F0003F80
000FF8007FC0
000FF8007FE0
001FFC007FE0
001F7C00FFE0
001F7C00FBE0
003F7C00FBE0
003E7C01FBE0
003E7C01F3E0
007E7C03F3E0
007C7C03E3E0
007C7C03E3E0
00FC7C07E3E0
00F87C07C3E0
01F87C0FC3E0
01F07C0F83E0
01F07C0F83E0
03F07C1F83E0
03E07C1F03E0
03E07C3F03E0
07E07C3E03E0
07C07C3E03E0
0FC07C7E03E0
0F807C7C03E0
0F807CFC03E0
1F807CF803E0
1F007CF803E0
1F007DF803E0
3F007DF003E0
3E007FF003E0
7E007FE003E0
7C007FE003E0
7C007FE003E0
FC007FC003E0
F8003FC003E0
F8000F0003E0
ENDCHAR
STARTCHAR 00B6
ENCODING 182
SWIDTH 557 0
DWIDTH 29 0
BBX 26 37 2 0
BITMAP
1FFFFC00
7FFFFF00
7FFFFF80
FFFFFF80
FFFFFF80
F80007C0
F80007C0
F80007C0
F80007C0
F80007C0
F80007C0
F80007C0
F80007C0
F80007C0
F80007C0
F80007C0
F80007C0
F80007C0
F80007C0
F80007C0
F80007C0
F80007C0
F80007C0
F80007C0
FFFF87C0
FFFFE7C0
FFFFE7C0
7FFFF7C0
1FFFF7C0
0001F7C0
0001F7C0
0001F7C0
0001F7C0
0001F7C0
0001F7C0
0001F7C0
0001F7C0
ENDCHAR
STARTCHAR 00B7
ENCODING 183
SWIDTH 192 0
DWIDTH 10 0
BBX 6 7 2 11
BITMAP
FC
FC
FC
FC
FC
FC
FC
ENDCHAR
STARTCHAR 00B8
ENCODING 184
SWIDTH 250 0
DWIDTH 13 0
BBX 9 8 2 -9
BITMAP
C000
F000
7C00
1F00
0780
0180
FF80
FF80
ENDCHAR
STARTCHAR 00BA
ENCODING 186
SWIDTH 461 0
DWIDTH 24 0
BBX 20 31 2 3
BITMAP
1FFF80
7FFFE0
7FFFF0
FFFFF0
FFFFF0
F800F0
F800F0
F800F0
F800F0
F800F0
F800F0
F800F0
F800F0
F800F0
F800F0
F800F0
F800F0
F800F0
F800F0
FFFFF0
FFFFF0
7FFFF0
7FFFE0
0FFF80
000000
000000
FFFFF0
FFFFF0
FFFFF0
FFFFF0
FFFFF0
ENDCHAR
STARTCHAR 00BB
ENCODING 187
SWIDTH 519 0
DWIDTH 27 0
BBX 23 20 2 5
BITMAP
FE7E00
7F3F00
3F1F80
1F9FC0
0FCFE0
07E7F0
03FBFC
03FDFE
01FCFE
00FE7E
00FE7E
00FEFE
01FDFE
03FFFC
07F3F8
0FE7E0
1FCFC0
3F9F80
3F3F80
7E7F00
ENDCHAR
STARTCHAR 00BF
ENCODING 191
SWIDTH 673 0
DWIDTH 35 0
BBX 31 37 2 0
BITMAP
00003E00
00003E00
00003E00
00003E00
00003E00
00000000
00000000
00003E00
00003E00
00003E00
00003E00
00003E00
00007E00
0001FE00
0007FE00
001FFC00
007FF000
01FFC000
07FF0000
3FFC0000
7FF00000
FFC00000
FF000000
FC000000
F8000000
F8000000
F8000000
F8000000
F8000000
F8000000
F8000000
F8000000
FFFFFFFE
FFFFFFFE
FFFFFFFE
7FFFFFFE
1FFFFFFE
ENDCHAR
STARTCHAR 00C0
ENCODING 192
SWIDTH 673 0
DWIDTH 35 0
BBX 31 48 2 1
BITMAP
00060000
000F0000
001F8000
001FC000
000FE000
0007F000
0003F800
0001F800
0000F000
00006000
00000000
00038000
000FE000
001FF000
001FF000
003FF000
003EF800
003EF800
007EFC00
007C7C00
00FC7E00
00F83E00
01F83E00
01F01F00
01F01F00
03F01F80
03E00F80
07E00FC0
07C007C0
0FC007E0
0F8003E0
1F8003E0
1FFFFFF0
1FFFFFF0
3FFFFFF8
3FFFFFF8
7FFFFFFC
7C00007C
FC00007E
F800003E
F800003E
F800003E
F800003E
F800003E
F800003E
F800003E
F800003E
F800003E
ENDCHAR
STARTCHAR 00C1
ENCODING 193
SWIDTH 673 0
DWIDTH 35 0
BBX 31 48 2 1
BITMAP
00018000
0003C000
0007E000
000FE000
001FC000
003F8000
007F0000
003E0000
001C0000
00080000
00000000
00038000
000FE000
001FF000
001FF000
003FF000
003EF800
003EF800
007EFC00
007C7C00
00FC7E00
00F83E00
01F83E00
01F01F00
01F01F00
03F01F80
03E00F80
07E00FC0
07C007C0
0FC007E0
0F8003E0
1F8003E0
1FFFFFF0
1FFFFFF0
3FFFFFF8
3FFFFFF8
7FFFFFFC
7C00007C
FC00007E
F800003E
F800003E
F800003E
F800003E
F800003E
F800003E
F800003E
F800003E
F800003E
ENDCHAR
STARTCHAR 00C2
ENCODING 194
SWIDTH 673 0
DWIDTH 35 0
BBX 31 48 2 1
BITMAP
00030000
00078000
000FC000
001FE000
001FF000
003FF800
007FFC00
007EFC00
003C7800
00183000
00000000
00038000
000FE000
001FF000
001FF000
003FF000
003EF800
003EF800
007EFC00
007C7C00
00FC7E00
00F83E00
01F83E00
01F01F00
01F01F00
03F01F80
03E00F80
07E00FC0
07C007C0
0FC007E0
0F8003E0
1F8003E0
1FFFFFF0
1FFFFFF0
3FFFFFF8
3FFFFFF8
7FFFFFFC
7C00007C
FC00007E
F800003E
F800003E
F800003E
F800003E
F800003E
F800003E
F800003E
F800003E
F800003E
ENDCHAR
STARTCHAR 00C3
ENCODING 195
SWIDTH 673 0
DWIDTH 35 0
BBX 31 48 2 1
BITMAP
00060C00
000F1E00
001FBF00
003FFF00
007FFE00
00FFFC00
01FFF800
00F9F000
0070E000
00204000
00000000
00038000
000FE000
001FF000
001FF000
003FF000
003EF800
003EF800
007EFC00
007C7C00
00FC7E00
00F83E00
01F83E00
01F01F00
01F01F00
03F01F80
03E00F80
07E00FC0
07C007C0
0FC007E0
0F8003E0
1F8003E0
1FFFFFF0
1FFFFFF0
3FFFFFF8
3FFFFFF8
7FFFFFFC
7C00007C
FC00007E
F800003E
F800003E
F800003E
F800003E
F800003E
F800003E
F800003E
F800003E
F800003E
ENDCHAR
STARTCHAR 00C4
ENCODING 196
SWIDTH 673 0
DWIDTH 35 0
BBX 31 43 2 0
BITMAP
007C7800
007C7800
007C7800
007C7800
007C7800
00000000
00038000
000FE000
001FF000
001FF000
003FF000
003EF800
003EF800
007EFC00
007C7C00
00FC7E00
00F83E00
01F83E00
01F01F00
01F01F00
03F01F80
03E00F80
07E00FC0
07C007C0
0FC007E0
0F8003E0
1F8003E0
1FFFFFF0
1FFFFFF0
3FFFFFF8
3FFFFFF8
7FFFFFFC
7C00007C
FC00007E
F800003E
F800003E
F800003E
F800003E
F800003E
F800003E
F800003E
F800003E
F800003E
ENDCHAR
STARTCHAR 00C5
ENCODING 197
SWIDTH 673 0
DWIDTH 35 0
BBX 31 45 2 0
BITMAP
00038000
000FE000
000FF000
000C7000
000C7000
000FE000
000FE000
00000000
00038000
000FE000
001FF000
001FF000
003FF000
003EF800
003EF800
007EFC00
007C7C00
00FC7E00
00F83E00
01F83E00
01F01F00
01F01F00
03F01F80
03E00F80
07E00FC0
07C007C0
0FC007E0
0F8003E0
1F8003E0
1FFFFFF0
1FFFFFF0
3FFFFFF8
3FFFFFF8
7FFFFFFC
7C00007C
FC00007E
F800003E
F800003E
F800003E
F800003E
F800003E
F800003E
F800003E
F800003E
F800003E
ENDCHAR
STARTCHAR 00C6
ENCODING 198
SWIDTH 1153 0
DWIDTH 60 0
BBX 57 37 2 0
BITMAP
00000073FFFFFF80
000001FFFFFFFF80
000003FFFFFFFF80
000003FFFFFFFF80
000007FFFFFFFF80
00000FDF00000000
00001FDF00000000
00003F9F00000000
00003F1F00000000
00007E1F00000000
0000FE1F00000000
0001FC1FF8000000
0003F81FFFF00000
0007F01FFFFFE000
000FE00FFFFFFC00
001FC003FFFFFE00
003F80000FFFFF00
007F0000000FFF00
007E000000001F00
00FC00000003FF00
01FC000001FFFF00
03FFFFFFFFFFFF00
07FFFFFFFFFFFE00
0FFFFFFFFFFFF800
1FFFFFFFFFFC0000
3FFFFFFFFC000000
7F00001F00000000
FE00001F00000000
FC00001F00000000
F800001F00000000
F800001F00000000
F800001F00000000
F800001FFFFFFF80
F800001FFFFFFF80
F800001FFFFFFF80
F800000FFFFFFF80
F8000007FFFFFF80
ENDCHAR
STARTCHAR 00C7
ENCODING 199
SWIDTH 673 0
DWIDTH 35 0
BBX 31 45 2 -9
BITMAP
0FFFFFE0
3FFFFFF8
7FFFFFFC
FFFFFFFE
FFFFFFFE
F800003E
F8000000
F8000000
F8000000
F8000000
F8000000
F8000000
F8000000
F8000000
F8000000
F8000000
F8000000
F8000000
F8000000
F8000000
F8000000
F8000000
F8000000
F8000000
F8000000
F8000000
F8000000
F8000000
F8000000
F8000000
F8000000
F800003E
FFFFFFFE
FFFFFFFE
FFFFFFFC
7FFFFFFC
1FFFFFF0
001C0000
001F0000
000FC000
0001F000
00007000
00003000
001FF000
000FF000
ENDCHAR
STARTCHAR 00C8
ENCODING 200
SWIDTH 634 0
DWIDTH 33 0
BBX 29 48 2 1
BITMAP
00060000
000F0000
001F8000
001FC000
000FE000
0007F000
0003F800
0001F000
0000E000
00004000
00000000
0FFFFFF8
3FFFFFF8
7FFFFFF8
FFFFFFF8
FFFFFFF8
F8000000
F8000000
F8000000
F8000000
F8000000
F8000000
FFC00000
FFFF8000
7FFFFF00
7FFFFFE0
1FFFFFF0
007FFFF8
00007FF8
000000F8
00001FF8
000FFFF8
0FFFFFF0
3FFFFFE0
7FFFFFC0
FFFFE000
FFF00000
F8000000
F8000000
F8000000
F8000000
F8000000
F8000000
FFFFFFF8
FFFFFFF8
FFFFFFF8
7FFFFFF8
1FFFFFF8
ENDCHAR
STARTCHAR 00C9
ENCODING 201
SWIDTH 634 0
DWIDTH 33 0
BBX 29 48 2 1
BITMAP
0000C000
0001E000
0003F000
0007F000
000FE000
001FE000
003FC000
001F8000
000F0000
00060000
00000000
0FFFFFF8
3FFFFFF8
7FFFFFF8
FFFFFFF8
FFFFFFF8
F8000000
F8000000
F8000000
F8000000
F8000000
F8000000
FFC00000
FFFF8000
7FFFFF00
7FFFFFE0
1FFFFFF0
007FFFF8
00007FF8
000000F8
00001FF8
000FFFF8
0FFFFFF0
3FFFFFE0
7FFFFFC0
FFFFE000
FFF00000
F8000000
F8000000
F8000000
F8000000
F8000000
F8000000
FFFFFFF8
FFFFFFF8
FFFFFFF8
7FFFFFF8
1FFFFFF8
ENDCHAR
STARTCHAR 00CA
ENCODING 202
SWIDTH 634 0
DWIDTH 33 0
BBX 29 48 2 1
BITMAP
00030000
00078000
000FC000
001FE000
001FF000
003FF800
007FFC00
007EFC00
003C7800
00183000
00000000
0FFFFFF8
3FFFFFF8
7FFFFFF8
FFFFFFF8
FFFFFFF8
F8000000
F8000000
F8000000
F8000000
F8000000
F8000000
FFC00000
FFFF8000
7FFFFF00
7FFFFFE0
1FFFFFF0
007FFFF8
00007FF8
000000F8
00001FF8
000FFFF8
0FFFFFF0
3FFFFFE0
7FFFFFC0
FFFFE000
FFF00000
F8000000
F8000000
F8000000
F8000000
F8000000
F8000000
FFFFFFF8
FFFFFFF8
FFFFFFF8
7FFFFFF8
1FFFFFF8
ENDCHAR
STARTCHAR 00CB
ENCODING 203
SWIDTH 634 0
DWIDTH 33 0
BBX 29 43 2 0
BITMAP
007C7800
007C7800
007C7800
007C7800
007C7800
00000000
0FFFFFF8
3FFFFFF8
7FFFFFF8
FFFFFFF8
FFFFFFF8
F8000000
F8000000
F8000000
F8000000
F8000000
F8000000
FFC00000
FFFF8000
7FFFFF00
7FFFFFE0
1FFFFFF0
007FFFF8
00007FF8
000000F8
00001FF8
000FFFF8
0FFFFFF0
3FFFFFE0
7FFFFFC0
FFFFE000
FFF00000
F8000000
F8000000
F8000000
F8000000
F8000000
F8000000
FFFFFFF8
FFFFFFF8
FFFFFFF8
7FFFFFF8
1FFFFFF8
ENDCHAR
STARTCHAR 00CC
ENCODING 204
SWIDTH 173 0
DWIDTH 9 0
BBX 10 48 -1 1
BITMAP
1000
3800
7C00
FE00
7F00
3F80
1FC0
0FC0
0780
0300
0000
1F00
1F00
1F00
1F00
1F00
1F00
1F00
1F00
1F00
1F00
1F00
1F00
1F00
1F00
1F00
1F00
1F00
1F00
1F00
1F00
1F00
1F00
1F00
1F00
1F00
1F00
1F00
1F00
1F00
1F00
1F00
1F00
1F00
1F00
1F00
1F00
1F00
ENDCHAR
STARTCHAR 00CD
ENCODING 205
SWIDTH 173 0
DWIDTH 9 0
BBX 10 48 -1 1
BITMAP
0300
0780
0FC0
1FC0
3F80
7F00
FE00
7C00
3800
1000
0000
1F00
1F00
1F00
1F00
1F00
1F00
1F00
1F00
1F00
1F00
1F00
1F00
1F00
1F00
1F00
1F00
1F00
1F00
1F00
1F00
1F00
1F00
1F00
1F00
1F00
1F00
1F00
1F00
1F00
1F00
1F00
1F00
1F00
1F00
1F00
1F00
1F00
ENDCHAR
STARTCHAR 00CE
ENCODING 206
SWIDTH 173 0
DWIDTH 9 0
BBX 14 48 -3 1
BITMAP
0300
0780
0FC0
1FE0
3FF0
7FF8
FFFC
7CF8
3C70
1830
0000
07C0
07C0
07C0
07C0
07C0
07C0
07C0
07C0
07C0
07C0
07C0
07C0
07C0
07C0
07C0
07C0
07C0
07C0
07C0
07C0
07C0
07C0
07C0
07C0
07C0
07C0
07C0
07C0
07C0
07C0
07C0
07C0
07C0
07C0
07C0
07C0
07C0
ENDCHAR
STARTCHAR 00CF
ENCODING 207
SWIDTH 173 0
DWIDTH 9 0
BBX 12 43 -2 0
BITMAP
F9F0
F9F0
F9F0
F9F0
F9F0
0000
0F80
0F80
0F80
0F80
0F80
0F80
0F80
0F80
0F80
0F80
0F80
0F80
0F80
0F80
0F80
0F80
0F80
0F80
0F80
0F80
0F80
0F80
0F80
0F80
0F80
0F80
0F80
0F80
0F80
0F80
0F80
0F80
0F80
0F80
0F80
0F80
0F80
ENDCHAR
STARTCHAR 00D1
ENCODING 209
SWIDTH 673 0
DWIDTH 35 0
BBX 31 48 2 1
BITMAP
00060C00
000F1E00
001FBF00
003FFF00
007FFE00
00FFFC00
01FFF800
00F9F000
0070E000
00204000
00000000
0C00003E
3F00003E
7F80003E
FFC0003E
FFC0003E
FFC0003E
FFE0003E
FBF0003E
FBF0003E
F9F8003E
F8F8003E
F8FC003E
F87E003E
F87E003E
F83F003E
F81F003E
F81F803E
F80FC03E
F80FC03E
F807E03E
F803E03E
F803F03E
F801F83E
F801F83E
F800FC3E
F8007C3E
F8007E3E
F8003F3E
F8003F3E
F8001FBE
F8000FBE
F8000FFE
F80007FE
F80007FE
F80003FC
F80003FC
F80000F0
ENDCHAR
STARTCHAR 00D2
ENCODING 210
SWIDTH 673 0
DWIDTH 35 0
BBX 31 48 2 1
BITMAP
00060000
000F0000
001F8000
001FC000
000FE000
0007F000
0003F800
0001F000
0000E000
00004000
00000000
0FFFFFE0
3FFFFFF8
7FFFFFFC
FFFFFFFE
FFFFFFFE
F800003E
F800003E
F800003E
F800003E
F800003E
F800003E
F800003E
F800003E
F800003E
F800003E
F800003E
F800003E
F800003E
F800003E
F800003E
F800003E
F800003E
F800003E
F800003E
F800003E
F800003E
F800003E
F800003E
F800003E
F800003E
F800003E
F800003E
FFFFFFFE
FFFFFFFE
FFFFFFFC
7FFFFFFC
1FFFFFF0
ENDCHAR
STARTCHAR 00D3
ENCODING 211
SWIDTH 673 0
DWIDTH 35 0
BBX 31 48 2 1
BITMAP
0000C000
0001E000
0003F000
0007F000
000FE000
001FE000
003FC000
001F8000
000F0000
00060000
00000000
0FFFFFE0
3FFFFFF8
7FFFFFFC
FFFFFFFE
FFFFFFFE
F800003E
F800003E
F800003E
F800003E
F800003E
F800003E
F800003E
F800003E
F800003E
F800003E
F800003E
F800003E
F800003E
F800003E
F800003E
F800003E
F800003E
F800003E
F800003E
F800003E
F800003E
F800003E
F800003E
F800003E
F800003E
F800003E
F800003E
FFFFFFFE
FFFFFFFE
FFFFFFFC
7FFFFFFC
1FFFFFF0
ENDCHAR
STARTCHAR 00D4
ENCODING 212
SWIDTH 673 0
DWIDTH 35 0
BBX 31 48 2 1
BITMAP
00030000
00078000
000FC000
001FE000
001FF000
003FF800
007FFC00
007EFC00
003C7800
00183000
00000000
0FFFFFE0
3FFFFFF8
7FFFFFFC
FFFFFFFE
FFFFFFFE
F800003E
F800003E
F800003E
F800003E
F800003E
F800003E
F800003E
F800003E
F800003E
F800003E
F800003E
F800003E
F800003E
F800003E
F800003E
F800003E
F800003E
F800003E
F800003E
F800003E
F800003E
F800003E
F800003E
F800003E
F800003E
F800003E
F800003E
FFFFFFFE
FFFFFFFE
FFFFFFFC
7FFFFFFC
1FFFFFF0
ENDCHAR
STARTCHAR 00D5
ENCODING 213
SWIDTH 673 0
DWIDTH 35 0
BBX 31 48 2 1
BITMAP
00060C00
000F1E00
001FBF00
003FFF00
007FFE00
00FFFC00
01FFF800
00F9F000
0070E000
00204000
00000000
0FFFFFE0
3FFFFFF8
7FFFFFFC
FFFFFFFE
FFFFFFFE
F800003E
F800003E
F800003E
F800003E
F800003E
F800003E
F800003E
F800003E
F800003E
F800003E
F800003E
F800003E
F800003E
F800003E
F800003E
F800003E
F800003E
F800003E
F800003E
F800003E
F800003E
F800003E
F800003E
F800003E
F800003E
F800003E
F800003E
FFFFFFFE
FFFFFFFE
FFFFFFFC
7FFFFFFC
1FFFFFF0
ENDCHAR
STARTCHAR 00D6
ENCODING 214
SWIDTH 673 0
DWIDTH 35 0
BBX 31 43 2 0
BITMAP
007C7800
007C7800
007C7800
007C7800
007C7800
00000000
0FFFFFE0
3FFFFFF8
7FFFFFFC
FFFFFFFE
FFFFFFFE
F800003E
F800003E
F800003E
F800003E
F800003E
F800003E
F800003E
F800003E
F800003E
F800003E
F800003E
F800003E
F800003E
F800003E
F800003E
F800003E
F800003E
F800003E
F800003E
F800003E
F800003E
F800003E
F800003E
F800003E
F800003E
F800003E
F800003E
FFFFFFFE
FFFFFFFE
FFFFFFFC
7FFFFFFC
1FFFFFF0
ENDCHAR
STARTCHAR 00D7
ENCODING 215
SWIDTH 500 0
DWIDTH 26 0
BBX 22 21 2 3
BITMAP
FC00FC
FC01F8
7E01F8
3F03F0
1F87E0
1F8FC0
0FFFC0
07FF80
03FF00
03FE00
00F800
03FE00
03FF00
07FF80
0FFF80
1FCFC0
1F87E0
3F03F0
7E03F0
FE01F8
FC00FC
ENDCHAR
STARTCHAR 00D8
ENCODING 216
SWIDTH 711 0
DWIDTH 37 0
BBX 36 41 0 -2
BITMAP
00000000C0
00000001E0
01FFFFFFF0
07FFFFFFF0
0FFFFFFFE0
1FFFFFFFE0
1FFFFFFFC0
1F00003FC0
1F00007FC0
1F00007FC0
1F0000FFC0
1F0001FFC0
1F0003FFC0
1F0007F7C0
1F000FE7C0
1F000FC7C0
1F001F87C0
1F003F87C0
1F007F07C0
1F00FE07C0
1F01FC07C0
1F01F807C0
1F03F007C0
1F07E007C0
1F0FE007C0
1F1FC007C0
1F3F8007C0
1F3F0007C0
1F7E0007C0
1FFC0007C0
1FFC0007C0
1FF80007C0
1FF00007C0
1FE00007C0
1FFFFFFFC0
1FFFFFFFC0
3FFFFFFFC0
7FFFFFFF80
FFFFFFFF00
3C00000000
1800000000
ENDCHAR
STARTCHAR 00D9
ENCODING 217
SWIDTH 673 0
DWIDTH 35 0
BBX 31 48 2 1
BITMAP
00060000
000F0000
001F8000
001FC000
000FE000
0007F000
0003F800
0001F000
0000E000
00004000
00000000
F800003E
F800003E
F800003E
F800003E
F800003E
F800003E
F800003E
F800003E
F800003E
F800003E
F800003E
F800003E
F800003E
F800003E
F800003E
F800003E
F800003E
F800003E
F800003E
F800003E
F800003E
F800003E
F800003E
F800003E
F800003E
F800003E
F800003E
F800003E
F800003E
FC00003E
FE00003E
7E00003E
3FFFFFFE
1FFFFFFE
1FFFFFFC
0FFFFFFC
07FFFFF0
ENDCHAR
STARTCHAR 00DA
ENCODING 218
SWIDTH 673 0
DWIDTH 35 0
BBX 31 48 2 1
BITMAP
0000C000
0001E000
0003F000
0007F000
000FE000
001FE000
003FC000
001F8000
000F0000
00060000
00000000
F800003E
F800003E
F800003E
F800003E
F800003E
F800003E
F800003E
F800003E
F800003E
F800003E
F800003E
F800003E
F800003E
F800003E
F800003E
F800003E
F800003E
F800003E
F800003E
F800003E
F800003E
F800003E
F800003E
F800003E
F800003E
F800003E
F800003E
F800003E
F800003E
FC00003E
FE00003E
7E00003E
3FFFFFFE
1FFFFFFE
1FFFFFFC
0FFFFFFC
07FFFFF0
ENDCHAR
STARTCHAR 00DB
ENCODING 219
SWIDTH 673 0
DWIDTH 35 0
BBX 31 48 2 1
BITMAP
00030000
00078000
000FC000
001FE000
001FF000
003FF800
007FFC00
007EFC00
003C7800
00183000
00000000
F800003E
F800003E
F800003E
F800003E
F800003E
F800003E
F800003E
F800003E
F800003E
F800003E
F800003E
F800003E
F800003E
F800003E
F800003E
F800003E
F800003E
F800003E
F800003E
F800003E
F800003E
F800003E
F800003E
F800003E
F800003E
F800003E
F800003E
F800003E
F800003E
FC00003E
FE00003E
7E00003E
3FFFFFFE
1FFFFFFE
1FFFFFFC
0FFFFFFC
07FFFFF0
ENDCHAR
STARTCHAR 00DC
ENCODING 220
SWIDTH 673 0
DWIDTH 35 0
BBX 31 43 2 0
BITMAP
007C7800
007C7800
007C7800
007C7800
007C7800
00000000
F800003E
F800003E
F800003E
F800003E
F800003E
F800003E
F800003E
F800003E
F800003E
F800003E
F800003E
F800003E
F800003E
F800003E
F800003E
F800003E
F800003E
F800003E
F800003E
F800003E
F800003E
F800003E
F800003E
F800003E
F800003E
F800003E
F800003E
F800003E
F800003E
FC00003E
FE00003E
7E00003E
3FFFFFFE
1FFFFFFE
1FFFFFFC
0FFFFFFC
07FFFFF0
ENDCHAR
STARTCHAR 00DD
ENCODING 221
SWIDTH 615 0
DWIDTH 32 0
BBX 36 48 -2 1
BITMAP
0000180000
00003C0000
00007E0000
0000FE0000
0001FC0000
0003F80000
0007F00000
0003E00000
0001C00000
0000800000
0000000000
FC000003F0
7E000007E0
3F00000FC0
3F00000FC0
1F80001F80
0FC0003F00
0FC0003F00
07E0007E00
03F000FC00
03F000FC00
01F801F800
00FC03F000
00FC03F000
007E07E000
003F0FC000
003F0FC000
001F9F8000
000FFF0000
000FFF0000
0007FE0000
0007FE0000
0003FC0000
0003F80000
0001F00000
0001F00000
0001F00000
0001F00000
0001F00000
0001F00000
0001F00000
0001F00000
0001F00000
0001F00000
0001F00000
0001F00000
0001F00000
0001F00000
ENDCHAR
STARTCHAR 00DF
ENCODING 223
SWIDTH 673 0
DWIDTH 35 0
BBX 31 41 2 -4
BITMAP
0FFFFFE0
3FFFFFF8
7FFFFFFC
FFFFFFFE
FFFFFFFE
F800003E
F800003E
F800003E
F800003E
F800003E
F800003E
F80003FE
F800FFFE
F83FFFFC
F9FFFFFC
FBFFFFF0
FBFFFE00
FFFF8000
FFF00000
FFFE0000
FBFFF800
FBFFFFC0
F9FFFFF8
F87FFFFC
F803FFFE
F8001FFE
F800007E
F800003E
F800003E
F800003E
F800003E
F800003E
FFFFFFFE
FFFFFFFE
FFFFFFFC
FFFFFFFC
FFFFFFF0
F8000000
F8000000
F8000000
F8000000
ENDCHAR
STARTCHAR 00E0
ENCODING 224
SWIDTH 615 0
DWIDTH 32 0
BBX 29 40 2 1
BITMAP
00200000
00700000
00F80000
01FC0000
00FE0000
007F0000
003F8000
001F8000
000F0000
00060000
00000000
07FFC000
3FFFCFE0
7FFFDFF0
FFFFDFF0
FFFFFFF0
F8003EF8
F8003EF8
F8003EF8
F8003EF8
F8003EF8
F8003EF8
F8003EF8
F8003EF8
F8003EF8
F8003EF8
F8003EF8
F8003EF8
F8003EF8
F8003EF8
F8003EF8
F8003EF8
F8003EF8
F8003EF8
F8003EF8
FFFFFEF8
FFFFFEF8
FFFFFCF8
7FFFFCF8
1FFFF0F8
ENDCHAR
STARTCHAR 00E1
ENCODING 225
SWIDTH 615 0
DWIDTH 32 0
BBX 29 40 2 1
BITMAP
00060000
000F0000
001F8000
003F8000
007F0000
00FE0000
01FC0000
00F80000
00700000
00300000
00000000
07FFC000
3FFFCFE0
7FFFDFF0
FFFFDFF0
FFFFFFF0
F8003EF8
F8003EF8
F8003EF8
F8003EF8
F8003EF8
F8003EF8
F8003EF8
F8003EF8
F8003EF8
F8003EF8
F8003EF8
F8003EF8
F8003EF8
F8003EF8
F8003EF8
F8003EF8
F8003EF8
F8003EF8
F8003EF8
FFFFFEF8
FFFFFEF8
FFFFFCF8
7FFFFCF8
1FFFF0F8
ENDCHAR
STARTCHAR 00E2
ENCODING 226
SWIDTH 615 0
DWIDTH 32 0
BBX 29 40 2 1
BITMAP
00040000
000E0000
001F0000
003F8000
007FC000
00FFE000
01FFF000
01FBF000
00F1E000
0060C000
00000000
07FFC000
3FFFCFE0
7FFFDFF0
FFFFDFF0
FFFFFFF0
F8003EF8
F8003EF8
F8003EF8
F8003EF8
F8003EF8
F8003EF8
F8003EF8
F8003EF8
F8003EF8
F8003EF8
F8003EF8
F8003EF8
F8003EF8
F8003EF8
F8003EF8
F8003EF8
F8003EF8
F8003EF8
F8003EF8
FFFFFEF8
FFFFFEF8
FFFFFCF8
7FFFFCF8
1FFFF0F8
ENDCHAR
STARTCHAR 00E3
ENCODING 227
SWIDTH 615 0
DWIDTH 32 0
BBX 29 40 2 1
BITMAP
00081000
001C3800
003E7C00
007FFE00
00FFFC00
01FFF800
03FFF000
03F7E000
01E3C000
00C18000
00000000
07FFC000
3FFFCFE0
7FFFDFF0
FFFFDFF0
FFFFFFF0
F8003EF8
F8003EF8
F8003EF8
F8003EF8
F8003EF8
F8003EF8
F8003EF8
F8003EF8
F8003EF8
F8003EF8
F8003EF8
F8003EF8
F8003EF8
F8003EF8
F8003EF8
F8003EF8
F8003EF8
F8003EF8
F8003EF8
FFFFFEF8
FFFFFEF8
FFFFFCF8
7FFFFCF8
1FFFF0F8
ENDCHAR
STARTCHAR 00E4
ENCODING 228
SWIDTH 615 0
DWIDTH 32 0
BBX 29 35 2 0
BITMAP
00F9F000
00F9F000
00F9F000
00F9F000
00F9F000
00000000
07FFC000
3FFFCFE0
7FFFDFF0
FFFFDFF0
FFFFFFF0
F8003EF8
F8003EF8
F8003EF8
F8003EF8
F8003EF8
F8003EF8
F8003EF8
F8003EF8
F8003EF8
F8003EF8
F8003EF8
F8003EF8
F8003EF8
F8003EF8
F8003EF8
F8003EF8
F8003EF8
F8003EF8
F8003EF8
FFFFFEF8
FFFFFEF8
FFFFFCF8
7FFFFCF8
1FFFF0F8
ENDCHAR
STARTCHAR 00E5
ENCODING 229
SWIDTH 615 0
DWIDTH 32 0
BBX 29 36 2 1
BITMAP
003F8000
003FC000
0030C000
0030C000
003FC000
003F8000
00000000
07FFC000
3FFFCFE0
7FFFDFF0
FFFFDFF0
FFFFFFF0
F8003EF8
F8003EF8
F8003EF8
F8003EF8
F8003EF8
F8003EF8
F8003EF8
F8003EF8
F8003EF8
F8003EF8
F8003EF8
F8003EF8
F8003EF8
F8003EF8
F8003EF8
F8003EF8
F8003EF8
F8003EF8
F8003EF8
FFFFFEF8
FFFFFEF8
FFFFFCF8
7FFFFCF8
1FFFF0F8
ENDCHAR
STARTCHAR 00E6
ENCODING 230
SWIDTH 1038 0
DWIDTH 54 0
BBX 50 29 2 0
BITMAP
07FFC007FFF800
3FFFCFFFFFFF00
7FFFDFFFFFFF80
FFFFDFFFFFFFC0
FFFFFFFFFFFFC0
F8003EF80007C0
F8003EF80007C0
F8003EF80007C0
F8003EF80007C0
F8003EF80007C0
F8003EF80007C0
F8003EF8001FC0
F8003EF8003FC0
F8003EF800FF80
F8003EF801FF80
F8003EF803FE00
F8003EF80FF800
F8003EF81FE000
F8003EF87FC000
F8003EF8FF0000
F8003EFBFE0000
F8003EFFFC0000
F8003EFFF00000
F8003EFFE00000
FFFFFEFFFFFF00
FFFFFEFFFFFF00
FFFFFE7FFFFF00
7FFFFC7FFFFF00
1FFFF81FFFFF00
ENDCHAR
STARTCHAR 00E7
ENCODING 231
SWIDTH 519 0
DWIDTH 27 0
BBX 24 37 2 -9
BITMAP
07FFFF
3FFFFF
7FFFFF
FFFFFF
FFFFFF
F80000
F80000
F80000
F80000
F80000
F80000
F80000
F80000
F80000
F80000
F80000
F80000
F80000
F80000
F80000
F80000
F80000
F80000
F80000
FFFFFF
FFFFFF
FFFFFF
7FFFFF
1FFFFF
003000
003C00
001F00
0007C0
0001E0
000060
003FE0
001FE0
ENDCHAR
STARTCHAR 00E8
ENCODING 232
SWIDTH 557 0
DWIDTH 29 0
BBX 26 40 2 1
BITMAP
00200000
00700000
00F80000
01FC0000
00FE0000
007F0000
003F8000
001F8000
000F0000
00060000
00000000
07FFF800
3FFFFF00
7FFFFF80
FFFFFF80
FFFFFF80
F80007C0
F80007C0
F80007C0
F80007C0
F80007C0
F80007C0
F8001FC0
F8007F80
F800FF80
F801FF00
F807FE00
F80FF000
F83FE000
F87FC000
F9FF0000
FBFE0000
FFF80000
FFF00000
FFC00000
FFFFFF00
FFFFFF00
FFFFFF00
7FFFFF00
1FFFFF00
ENDCHAR
STARTCHAR 00E9
ENCODING 233
SWIDTH 557 0
DWIDTH 29 0
BBX 26 40 2 1
BITMAP
00060000
000F0000
001F8000
003F8000
007F0000
00FE0000
01FC0000
00F80000
00700000
00300000
00000000
07FFF800
3FFFFF00
7FFFFF80
FFFFFF80
FFFFFF80
F80007C0
F80007C0
F80007C0
F80007C0
F80007C0
F80007C0
F8001FC0
F8007F80
F800FF80
F801FF00
F807FE00
F80FF000
F83FE000
F87FC000
F9FF0000
FBFE0000
FFF80000
FFF00000
FFC00000
FFFFFF00
FFFFFF00
FFFFFF00
7FFFFF00
1FFFFF00
ENDCHAR
STARTCHAR 00EA
ENCODING 234
SWIDTH 557 0
DWIDTH 29 0
BBX 26 40 2 1
BITMAP
000C0000
001E0000
003F0000
007F8000
00FFC000
01FFE000
03FFF000
01F3E000
00E1C000
00408000
00000000
07FFF800
3FFFFF00
7FFFFF80
FFFFFF80
FFFFFF80
F80007C0
F80007C0
F80007C0
F80007C0
F80007C0
F80007C0
F8001FC0
F8007F80
F800FF80
F801FF00
F807FE00
F80FF000
F83FE000
F87FC000
F9FF0000
FBFE0000
FFF80000
FFF00000
FFC00000
FFFFFF00
FFFFFF00
FFFFFF00
7FFFFF00
1FFFFF00
ENDCHAR
STARTCHAR 00EB
ENCODING 235
SWIDTH 557 0
DWIDTH 29 0
BBX 26 35 2 0
BITMAP
00F9F000
00F9F000
00F9F000
00F9F000
00F9F000
00000000
07FFF800
3FFFFF00
7FFFFF80
FFFFFF80
FFFFFF80
F80007C0
F80007C0
F80007C0
F80007C0
F80007C0
F80007C0
F8001FC0
F8007F80
F800FF80
F801FF00
F807FE00
F80FF000
F83FE000
F87FC000
F9FF0000
FBFE0000
FFF80000
FFF00000
FFC00000
FFFFFF00
FFFFFF00
FFFFFF00
7FFFFF00
1FFFFF00
ENDCHAR
STARTCHAR 00EC
ENCODING 236
SWIDTH 173 0
DWIDTH 9 0
BBX 10 40 -1 1
BITMAP
1000
3800
7C00
FE00
7F00
3F80
1FC0
0FC0
0780
0300
0000
1F00
1F00
1F00
1F00
1F00
1F00
1F00
1F00
1F00
1F00
1F00
1F00
1F00
1F00
1F00
1F00
1F00
1F00
1F00
1F00
1F00
1F00
1F00
1F00
1F00
1F00
1F00
1F00
1F00
ENDCHAR
STARTCHAR 00ED
ENCODING 237
SWIDTH 173 0
DWIDTH 9 0
BBX 10 40 -1 1
BITMAP
0300
0780
0FC0
1FC0
3F80
7F00
FE00
7C00
3800
1000
0000
1F00
1F00
1F00
1F00
1F00
1F00
1F00
1F00
1F00
1F00
1F00
1F00
1F00
1F00
1F00
1F00
1F00
1F00
1F00
1F00
1F00
1F00
1F00
1F00
1F00
1F00
1F00
1F00
1F00
ENDCHAR
STARTCHAR 00EE
ENCODING 238
SWIDTH 173 0
DWIDTH 9 0
BBX 13 40 -2 1
BITMAP
0200
0700
0F80
1FC0
3FE0
7FF0
FFF8
FDF8
78F0
3060
0000
0F80
0F80
0F80
0F80
0F80
0F80
0F80
0F80
0F80
0F80
0F80
0F80
0F80
0F80
0F80
0F80
0F80
0F80
0F80
0F80
0F80
0F80
0F80
0F80
0F80
0F80
0F80
0F80
0F80
ENDCHAR
STARTCHAR 00EF
ENCODING 239
SWIDTH 173 0
DWIDTH 9 0
BBX 12 35 -2 0
BITMAP
F9F0
F9F0
F9F0
F9F0
F9F0
0000
0F80
0F80
0F80
0F80
0F80
0F80
0F80
0F80
0F80
0F80
0F80
0F80
0F80
0F80
0F80
0F80
0F80
0F80
0F80
0F80
0F80
0F80
0F80
0F80
0F80
0F80
0F80
0F80
0F80
ENDCHAR
STARTCHAR 00F1
ENCODING 241
SWIDTH 557 0
DWIDTH 29 0
BBX 26 40 2 1
BITMAP
00183000
003C7800
007EFC00
00FFFC00
01FFF800
03FFF000
07FFE000
03E7C000
01C38000
00810000
00000000
07FFF800
3FFFFF00
7FFFFF80
FFFFFF80
FFFFFF80
F80007C0
F80007C0
F80007C0
F80007C0
F80007C0
F80007C0
F80007C0
F80007C0
F80007C0
F80007C0
F80007C0
F80007C0
F80007C0
F80007C0
F80007C0
F80007C0
F80007C0
F80007C0
F80007C0
F80007C0
F80007C0
F80007C0
F80007C0
F80007C0
ENDCHAR
STARTCHAR 00F2
ENCODING 242
SWIDTH 557 0
DWIDTH 29 0
BBX 26 40 2 1
BITMAP
00200000
00700000
00F80000
01FC0000
00FE0000
007F0000
003F8000
001F8000
000F0000
00060000
00000000
07FFF800
3FFFFF00
7FFFFF80
FFFFFF80
FFFFFF80
F80007C0
F80007C0
F80007C0
F80007C0
F80007C0
F80007C0
F80007C0
F80007C0
F80007C0
F80007C0
F80007C0
F80007C0
F80007C0
F80007C0
F80007C0
F80007C0
F80007C0
F80007C0
F80007C0
FFFFFFC0
FFFFFF80
FFFFFF80
7FFFFF00
1FFFFE00
ENDCHAR
STARTCHAR 00F3
ENCODING 243
SWIDTH 557 0
DWIDTH 29 0
BBX 26 40 2 1
BITMAP
00060000
000F0000
001F8000
003F8000
007F0000
00FE0000
01FC0000
00F80000
00700000
00300000
00000000
07FFF800
3FFFFF00
7FFFFF80
FFFFFF80
FFFFFF80
F80007C0
F80007C0
F80007C0
F80007C0
F80007C0
F80007C0
F80007C0
F80007C0
F80007C0
F80007C0
F80007C0
F80007C0
F80007C0
F80007C0
F80007C0
F80007C0
F80007C0
F80007C0
F80007C0
FFFFFFC0
FFFFFF80
FFFFFF80
7FFFFF00
1FFFFE00
ENDCHAR
STARTCHAR 00F4
ENCODING 244
SWIDTH 557 0
DWIDTH 29 0
BBX 26 40 2 1
BITMAP
00080000
001C0000
003E0000
007F0000
00FF8000
01FFC000
03FFE000
03F7E000
01E3C000
00C18000
00000000
07FFF800
3FFFFF00
7FFFFF80
FFFFFF80
FFFFFF80
F80007C0
F80007C0
F80007C0
F80007C0
F80007C0
F80007C0
F80007C0
F80007C0
F80007C0
F80007C0
F80007C0
F80007C0
F80007C0
F80007C0
F80007C0
F80007C0
F80007C0
F80007C0
F80007C0
FFFFFFC0
FFFFFF80
FFFFFF80
7FFFFF00
1FFFFE00
ENDCHAR
STARTCHAR 00F5
ENCODING 245
SWIDTH 557 0
DWIDTH 29 0
BBX 26 40 2 1
BITMAP
00183000
003C7800
007EFC00
00FFFC00
01FFF800
03FFF000
07FFE000
03E7C000
01C38000
00810000
00000000
07FFF800
3FFFFF00
7FFFFF80
FFFFFF80
FFFFFF80
F80007C0
F80007C0
F80007C0
F80007C0
F80007C0
F80007C0
F80007C0
F80007C0
F80007C0
F80007C0
F80007C0
F80007C0
F80007C0
F80007C0
F80007C0
F80007C0
F80007C0
F80007C0
F80007C0
FFFFFFC0
FFFFFF80
FFFFFF80
7FFFFF00
1FFFFE00
ENDCHAR
STARTCHAR 00F6
ENCODING 246
SWIDTH 557 0
DWIDTH 29 0
BBX 26 35 2 0
BITMAP
01F3E000
01F3E000
01F3E000
01F3E000
01F3E000
00000000
07FFF800
3FFFFF00
7FFFFF80
FFFFFF80
FFFFFF80
F80007C0
F80007C0
F80007C0
F80007C0
F80007C0
F80007C0
F80007C0
F80007C0
F80007C0
F80007C0
F80007C0
F80007C0
F80007C0
F80007C0
F80007C0
F80007C0
F80007C0
F80007C0
F80007C0
FFFFFFC0
FFFFFF80
FFFFFF80
7FFFFF00
1FFFFE00
ENDCHAR
STARTCHAR 00F7
ENCODING 247
SWIDTH 500 0
DWIDTH 26 0
BBX 22 22 2 4
BITMAP
00F800
00F800
00F800
00F800
00F800
000000
000000
000000
000000
FFFFFC
FFFFFC
FFFFFC
FFFFFC
FFFFFC
000000
000000
000000
00F800
00F800
00F800
00F800
00F800
ENDCHAR
STARTCHAR 00F8
ENCODING 248
SWIDTH 634 0
DWIDTH 33 0
BBX 31 34 1 -2
BITMAP
00000010
00000038
00FFFE7C
07FFFFFE
0FFFFFFC
1FFFFFF8
1FFFFFF0
1F0007F8
1F000FF8
1F001FF8
1F003FF8
1F007FF8
1F00FEF8
1F01FCF8
1F03F8F8
1F07F0F8
1F0FE0F8
1F0FC0F8
1F1F80F8
1F3F00F8
1F7F00F8
1FFE00F8
1FFC00F8
1FF800F8
1FF000F8
1FE000F8
1FFFFFF8
3FFFFFF0
7FFFFFF0
7FFFFFE0
FFFFFFC0
7C000000
38000000
10000000
ENDCHAR
STARTCHAR 00F9
ENCODING 249
SWIDTH 557 0
DWIDTH 29 0
BBX 26 40 2 1
BITMAP
00200000
00700000
00F80000
01FC0000
00FE0000
007F0000
003F8000
001F8000
000F0000
00060000
00000000
F80007C0
F80007C0
F80007C0
F80007C0
F80007C0
F80007C0
F80007C0
F80007C0
F80007C0
F80007C0
F80007C0
F80007C0
F80007C0
F80007C0
F80007C0
F80007C0
F80007C0
F80007C0
F80007C0
F80007C0
F80007C0
F80007C0
F80007C0
F80007C0
FFFFFFC0
FFFFFF80
FFFFFF80
7FFFFF00
1FFFFE00
ENDCHAR
STARTCHAR 00FA
ENCODING 250
SWIDTH 557 0
DWIDTH 29 0
BBX 26 40 2 1
BITMAP
00060000
000F0000
001F8000
003F8000
007F0000
00FE0000
01FC0000
00F80000
00700000
00300000
00000000
F80007C0
F80007C0
F80007C0
F80007C0
F80007C0
F80007C0
F80007C0
F80007C0
F80007C0
F80007C0
F80007C0
F80007C0
F80007C0
F80007C0
F80007C0
F80007C0
F80007C0
F80007C0
F80007C0
F80007C0
F80007C0
F80007C0
F80007C0
F80007C0
FFFFFFC0
FFFFFF80
FFFFFF80
7FFFFF00
1FFFFE00
ENDCHAR
STARTCHAR 00FB
ENCODING 251
SWIDTH 557 0
DWIDTH 29 0
BBX 26 40 2 1
BITMAP
000C0000
001E0000
003F0000
007F8000
00FFC000
01FFE000
03FFF000
01F3E000
00E1C000
00408000
00000000
F80007C0
F80007C0
F80007C0
F80007C0
F80007C0
F80007C0
F80007C0
F80007C0
F80007C0
F80007C0
F80007C0
F80007C0
F80007C0
F80007C0
F80007C0
F80007C0
F80007C0
F80007C0
F80007C0
F80007C0
F80007C0
F80007C0
F80007C0
F80007C0
FFFFFFC0
FFFFFF80
FFFFFF80
7FFFFF00
1FFFFE00
ENDCHAR
STARTCHAR 00FC
ENCODING 252
SWIDTH 557 0
DWIDTH 29 0
BBX 26 35 2 0
BITMAP
01F3E000
01F3E000
01F3E000
01F3E000
01F3E000
00000000
F80007C0
F80007C0
F80007C0
F80007C0
F80007C0
F80007C0
F80007C0
F80007C0
F80007C0
F80007C0
F80007C0
F80007C0
F80007C0
F80007C0
F80007C0
F80007C0
F80007C0
F80007C0
F80007C0
F80007C0
F80007C0
F80007C0
F80007C0
F80007C0
FFFFFFC0
FFFFFF80
FFFFFF80
7FFFFF00
1FFFFE00
ENDCHAR
STARTCHAR 00FD
ENCODING 253
SWIDTH 557 0
DWIDTH 29 0
BBX 26 48 2 -8
BITMAP
00060000
000F0000
001F8000
003F8000
007F0000
00FE0000
01FC0000
00F80000
00700000
00300000
00000000
F80007C0
F80007C0
F80007C0
F80007C0
F80007C0
F80007C0
F80007C0
F80007C0
F80007C0
F80007C0
F80007C0
F80007C0
F80007C0
F80007C0
F80007C0
F80007C0
F80007C0
F80007C0
F80007C0
F80007C0
F80007C0
F80007C0
F80007C0
F80007C0
FFFF87C0
FFFFE7C0
FFFFF7C0
7FFFF7C0
1FFFF7C0
0001F7C0
0001F7C0
0001F7C0
0001FFC0
0000FF80
0000FF80
00007F00
00003E00
ENDCHAR
STARTCHAR 00FF
ENCODING 255
SWIDTH 557 0
DWIDTH 29 0
BBX 26 43 2 -9
BITMAP
01F3E000
01F3E000
01F3E000
01F3E000
01F3E000
00000000
F80007C0
F80007C0
F80007C0
F80007C0
F80007C0
F80007C0
F80007C0
F80007C0
F80007C0
F80007C0
F80007C0
F80007C0
F80007C0
F80007C0
F80007C0
F80007C0
F80007C0
F80007C0
F80007C0
F80007C0
F80007C0
F80007C0
F80007C0
F80007C0
FFFF87C0
FFFFE7C0
FFFFE7C0
7FFFF7C0
1FFFF7C0
0001F7C0
0001F7C0
0001F7C0
0001FFC0
0001FF80
0000FF80
0000FF00
00003E00
ENDCHAR
STARTCHAR 0131
ENCODING 305
SWIDTH 173 0
DWIDTH 9 0
BBX 5 29 2 0
BITMAP
F8
F8
F8
F8
F8
F8
F8
F8
F8
F8
F8
F8
F8
F8
F8
F8
F8
F8
F8
F8
F8
F8
F8
F8
F8
F8
F8
F8
F8
ENDCHAR
STARTCHAR 0142
ENCODING 322
SWIDTH 653 0
DWIDTH 34 0
BBX 34 37 -1 0
BITMAP
FF000007C0
7F800007C0
3FC00007C0
0FE00007C0
07F00007C0
03FC0007C0
01FE0007C0
007F0007C0
003F8007C0
001FE007C0
000FF007C0
0007F807C0
0001FC07C0
0000FE07C0
00007F87C0
00003FC7C0
00001FE7C0
000007F7C0
000003F7C0
000001FFC0
000000FFC0
000000FFC0
0000007FC0
0000001FC0
00000007C0
00000007C0
00000007C0
00000007C0
00000007C0
00000007C0
00000007C0
00000007C0
00000007C0
00000007C0
00000007C0
00000007C0
00000007C0
ENDCHAR
STARTCHAR 0152
ENCODING 338
SWIDTH 1134 0
DWIDTH 59 0
BBX 55 37 2 0
BITMAP
0FFFFFE3FFFFFE
3FFFFFFFFFFFFE
7FFFFFFFFFFFFE
FFFFFFFFFFFFFE
FFFFFFFFFFFFFE
F800003E000000
F800003E000000
F800003E000000
F800003E000000
F800003E000000
F800003E000000
F800003FF00000
F800003FFFE000
F800001FFFFFC0
F800000FFFFFF8
F8000007FFFFFC
F80000001FFFFE
F8000000001FFE
F800000000003E
F80000000007FE
F800000003FFFE
F8000001FFFFFE
F800000FFFFFFC
F800001FFFFFF0
F800003FFFFC00
F800003FFE0000
F800003F000000
F800003E000000
F800003E000000
F800003E000000
F800003E000000
F800003E000000
FFFFFFFFFFFFFE
FFFFFFFFFFFFFE
FFFFFFFFFFFFFE
7FFFFFFFFFFFFE
1FFFFFF7FFFFFE
ENDCHAR
STARTCHAR 0153
ENCODING 339
SWIDTH 980 0
DWIDTH 51 0
BBX 47 29 2 0
BITMAP
07FFF83FFFC0
3FFFFFFFFFF8
7FFFFFFFFFFC
FFFFFFFFFFFE
FFFFFFFFFFFE
F80007C0003E
F80007C0003E
F80007C0003E
F80007C0003E
F80007C0003E
F80007C0003E
F80007C0007E
F80007C001FE
F80007C003FE
F80007C00FFC
F80007C01FF0
F80007C07FC0
F80007C0FF80
F80007C3FE00
F80007C7FC00
F80007DFF000
F80007FFE000
F80007FF8000
F80007FF0000
FFFFFFFFFFFC
FFFFFFFFFFFC
FFFFFFFFFFFC
7FFFFFFFFFFC
1FFFFEFFFFFC
ENDCHAR
STARTCHAR 0160
ENCODING 352
SWIDTH 673 0
DWIDTH 35 0
BBX 31 48 2 1
BITMAP
00183000
003C7800
007EFC00
007FFC00
003FF800
001FF000
000FE000
0007C000
00038000
00010000
00000000
0FFFFFFE
3FFFFFFE
7FFFFFFE
FFFFFFFE
FFFFFFFE
F8000000
F8000000
F8000000
F8000000
F8000000
F8000000
FE000000
FF800000
7FE00000
7FF80000
1FFE0000
03FF8000
00FFE000
003FF800
000FFE00
0003FF80
0000FFE0
00003FF8
00000FFC
000003FE
000000FE
0000003E
0000003E
0000003E
0000003E
0000003E
0000003E
FFFFFFFE
FFFFFFFE
FFFFFFFC
FFFFFFFC
FFFFFFF0
ENDCHAR
STARTCHAR 0161
ENCODING 353
SWIDTH 557 0
DWIDTH 29 0
BBX 26 40 2 1
BITMAP
0060C000
00F1E000
01FBF000
01FFF000
00FFE000
007FC000
003F8000
001F0000
000E0000
00040000
00000000
07FFFFC0
3FFFFFC0
7FFFFFC0
FFFFFFC0
FFFFFFC0
F8000000
F8000000
F8000000
FC000000
FF000000
FFC00000
7FF00000
3FFC0000
07FF0000
01FFC000
007FF000
001FFC00
0007FF00
0001FF80
00007F80
00001FC0
000007C0
000007C0
000007C0
FFFFFFC0
FFFFFF80
FFFFFF80
FFFFFF00
FFFFFE00
ENDCHAR
STARTCHAR 0178
ENCODING 376
SWIDTH 615 0
DWIDTH 32 0
BBX 36 43 -2 0
BITMAP
000F9F0000
000F9F0000
000F9F0000
000F9F0000
000F9F0000
0000000000
FC000003F0
7E000007E0
3F00000FC0
3F00000FC0
1F80001F80
0FC0003F00
0FC0003F00
07E0007E00
03F000FC00
03F000FC00
01F801F800
00FC03F000
00FC03F000
007E07E000
003F0FC000
003F0FC000
001F9F8000
000FFF0000
000FFF0000
0007FE0000
0007FE0000
0003FC0000
0003F80000
0001F00000
0001F00000
0001F00000
0001F00000
0001F00000
0001F00000
0001F00000
0001F00000
0001F00000
0001F00000
0001F00000
0001F00000
0001F00000
0001F00000
ENDCHAR
STARTCHAR 0192
ENCODING 402
SWIDTH 653 0
DWIDTH 34 0
BBX 34 37 -2 0
BITMAP
FE000007C0
7E000007C0
3F000007C0
1F800007C0
1FC00007C0
0FC00007C0
07E00007C0
03F00007C0
03F00007C0
01F80007C0
00FC0007C0
00FE0007C0
007E0007C0
003F0007C0
001F8007C0
001F8007C0
000FC007C0
0007E007C0
0007F007C0
0003F007C0
0001F807C0
0000FC07C0
0000FE07C0
00007E07C0
00003F07C0
00001F87C0
00001F87C0
00000FC7C0
000007E7C0
000007F7C0
000003F7C0
000001FFC0
000000FFC0
000000FFC0
000000FF80
0000007F80
0000003E00
ENDCHAR
STARTCHAR 02C6
ENCODING 710
SWIDTH 346 0
DWIDTH 18 0
BBX 14 10 2 38
BITMAP
0300
0780
0FC0
1FE0
3FF0
7FF8
FFFC
7CF8
3870
1020
ENDCHAR
STARTCHAR 02C7
ENCODING 711
SWIDTH 346 0
DWIDTH 18 0
BBX 13 10 2 38
BITMAP
3060
78F0
FDF8
FFF8
7FF0
3FE0
1FC0
0F80
0780
0300
ENDCHAR
STARTCHAR 02C9
ENCODING 713
SWIDTH 230 0
DWIDTH 12 0
BBX 9 3 2 37
BITMAP
FF80
FF80
FF80
ENDCHAR
STARTCHAR 02D8
ENCODING 728
SWIDTH 346 0
DWIDTH 18 0
BBX 13 10 2 38
BITMAP
3060
78F0
FDF8
FFF8
7FF0
3FE0
1FC0
0F80
0780
0300
ENDCHAR
STARTCHAR 02D9
ENCODING 729
SWIDTH 173 0
DWIDTH 9 0
BBX 5 5 2 39
BITMAP
F8
F8
F8
F8
F8
ENDCHAR
STARTCHAR 02DA
ENCODING 730
SWIDTH 192 0
DWIDTH 10 0
BBX 6 5 2 38
BITMAP
FC
FC
CC
FC
FC
ENDCHAR
STARTCHAR 02DB
ENCODING 731
SWIDTH 250 0
DWIDTH 13 0
BBX 9 8 2 -9
BITMAP
0180
0780
1F00
7C00
F000
C000
FF80
FF80
ENDCHAR
STARTCHAR 02DC
ENCODING 732
SWIDTH 442 0
DWIDTH 23 0
BBX 19 10 2 38
BITMAP
030100
078380
0FC7C0
1FCFE0
3F9FC0
7F3F80
FE7F00
7C7E00
383C00
101800
ENDCHAR
STARTCHAR 02DD
ENCODING 733
SWIDTH 442 0
DWIDTH 23 0
BBX 19 10 2 38
BITMAP
030100
078380
0FC7C0
1FCFE0
3F9FC0
7F3F80
FE7F00
7C7E00
383C00
101800
ENDCHAR
STARTCHAR 0394
ENCODING 916
SWIDTH 653 0
DWIDTH 34 0
BBX 34 37 1 0
BITMAP
0000001FC0
0000003F80
0000007F00
000000FE00
000001FC00
000001F800
000003F800
000007F000
00000FE000
00001FC000
00003F8000
00007F0000
0000FE0000
0000FC0000
0001F80000
0003F80000
0007F00000
000FE00000
001FC00000
003F800000
007F000000
007E000000
00FC000000
01FC000000
03F8000000
07F0000000
0FE0000000
3FC0000000
7F80000000
7F00000000
FE00000000
FC00000000
FFFFFFFE00
FFFFFFFE00
7FFFFFFE00
7FFFFFFE00
1FFFFFFE00
ENDCHAR
STARTCHAR 03A9
ENCODING 937
SWIDTH 673 0
DWIDTH 35 0
BBX 31 37 2 0
BITMAP
0FFFFFE0
3FFFFFF8
7FFFFFFC
FFFFFFFE
FFFFFFFE
F800003E
F800003E
F800003E
F800003E
F800003E
F800003E
F800003E
F800003E
F800003E
F800003E
F800003E
F800003E
F800003E
F800003E
F800003E
F800003E
F800003E
F800003E
F800003E
F800003E
F800003E
F800003E
FFF83FFE
FFFC7FFE
7FFEFFFC
3FFEFFF8
0FFEFFE0
FFFEFFFE
FFFEFFFE
FFFCFFFE
FFFC7FFE
FFF01FFE
ENDCHAR
STARTCHAR 03BC
ENCODING 956
SWIDTH 846 0
DWIDTH 44 0
BBX 43 37 -1 0
BITMAP
0001C0000E00
0007F0003F80
000FF8007FC0
000FF8007FE0
001FFC007FE0
001F7C00FFE0
001F7C00FBE0
003F7C00FBE0
003E7C01FBE0
003E7C01F3E0
007E7C03F3E0
007C7C03E3E0
007C7C03E3E0
00FC7C07E3E0
00F87C07C3E0
01F87C0FC3E0
01F07C0F83E0
01F07C0F83E0
03F07C1F83E0
03E07C1F03E0
03E07C3F03E0
07E07C3E03E0
07C07C3E03E0
0FC07C7E03E0
0F807C7C03E0
0F807CFC03E0
1F807CF803E0
1F007CF803E0
1F007DF803E0
3F007DF003E0
3E007FF003E0
7E007FE003E0
7C007FE003E0
7C007FE003E0
FC007FC003E0
F8003FC003E0
F8000F0003E0
ENDCHAR
STARTCHAR 03C0
ENCODING 960
SWIDTH 692 0
DWIDTH 36 0
BBX 33 37 1 0
BITMAP
0C00000000
7F00000000
7F80000000
FFC0000000
FFC0000000
FFE0000000
FFE0000000
FBF0000000
F9F8000000
F9FC000000
F8FC000000
F87E000000
F83F000000
F83F000000
F81F800000
F80FC00000
F80FE00000
F807E00000
F803F00000
F801F80000
F801F80000
FFFFFC0000
FFFFFE0000
FFFFFF0000
FFFFFF0000
FFFFFF8000
F8000FC000
F8000FE000
F80007E000
F80003F000
F80001F800
F80001F800
F80000FC00
F800007E00
F800007F00
F800003F00
F800001F80
ENDCHAR
STARTCHAR 2010
ENCODING 8208
SWIDTH 500 0
DWIDTH 26 0
BBX 22 5 2 14
BITMAP
FFFFFC
FFFFFC
FFFFFC
FFFFFC
FFFFFC
ENDCHAR
STARTCHAR 2013
ENCODING 8211
SWIDTH 288 0
DWIDTH 15 0
BBX 11 5 2 14
BITMAP
FFE0
FFE0
FFE0
FFE0
FFE0
ENDCHAR
STARTCHAR 2014
ENCODING 8212
SWIDTH 673 0
DWIDTH 35 0
BBX 31 5 2 14
BITMAP
FFFFFFFE
FFFFFFFE
FFFFFFFE
FFFFFFFE
FFFFFFFE
ENDCHAR
STARTCHAR 2018
ENCODING 8216
SWIDTH 173 0
DWIDTH 9 0
BBX 5 9 2 28
BITMAP
38
78
78
F8
F8
F8
F8
F8
F8
ENDCHAR
STARTCHAR 2019
ENCODING 8217
SWIDTH 173 0
DWIDTH 9 0
BBX 5 9 2 28
BITMAP
F8
F8
F8
F8
F8
F0
F0
E0
E0
ENDCHAR
STARTCHAR 201A
ENCODING 8218
SWIDTH 173 0
DWIDTH 9 0
BBX 5 8 2 -5
BITMAP
F8
F8
F8
F8
F8
F0
F0
E0
ENDCHAR
STARTCHAR 201C
ENCODING 8220
SWIDTH 269 0
DWIDTH 14 0
BBX 11 9 2 28
BITMAP
38E0
79E0
79E0
FBE0
FBE0
FBE0
FBE0
FBE0
FBE0
ENDCHAR
STARTCHAR 201D
ENCODING 8221
SWIDTH 269 0
DWIDTH 14 0
BBX 11 9 2 28
BITMAP
FBE0
FBE0
FBE0
FBE0
FBC0
F3C0
F380
E380
E380
ENDCHAR
STARTCHAR 201E
ENCODING 8222
SWIDTH 269 0
DWIDTH 14 0
BBX 11 8 2 -5
BITMAP
FBE0
FBE0
FBE0
FBE0
FBC0
F3C0
F380
E380
ENDCHAR
STARTCHAR 2020
ENCODING 8224
SWIDTH 288 0
DWIDTH 15 0
BBX 11 22 2 4
BITMAP
1F00
1F00
1F00
1F00
FFE0
FFE0
FFE0
FFE0
FFE0
1F00
1F00
1F00
1F00
1F00
1F00
1F00
1F00
1F00
1F00
1F00
1F00
1F00
ENDCHAR
STARTCHAR 2021
ENCODING 8225
SWIDTH 288 0
DWIDTH 15 0
BBX 11 22 2 4
BITMAP
1F00
1F00
1F00
1F00
FFE0
FFE0
FFE0
FFE0
FFE0
1F00
1F00
1F00
1F00
1F00
FFE0
FFE0
FFE0
FFE0
FFE0
1F00
1F00
1F00
ENDCHAR
STARTCHAR 2022
ENCODING 8226
SWIDTH 423 0
DWIDTH 22 0
BBX 18 21 2 3
BITMAP
0FF800
3FFF00
7FFF80
FFFFC0
FFFFC0
FFFFC0
FFFFC0
FFFFC0
FFFFC0
FFFFC0
FFFFC0
FFFFC0
FFFFC0
FFFFC0
FFFFC0
FFFFC0
FFFFC0
FFFFC0
FFFF80
7FFF80
3FFE00
ENDCHAR
STARTCHAR 2026
ENCODING 8230
SWIDTH 192 0
DWIDTH 10 0
BBX 24 7 2 0
BITMAP
FCFE7F
FCFE7F
FCFE7F
FCFE7F
FCFE7F
FCFE7F
FCFE7F
ENDCHAR
STARTCHAR 2030
ENCODING 8240
SWIDTH 1153 0
DWIDTH 60 0
BBX 56 37 2 -1
BITMAP
0FFC003E000000
3FFF003E000000
7FFF803E000000
FFFFC0FE000000
FFFFC0FE000000
F807C1FE000000
F807C1FC000000
F807C3F0000000
F807C7E0000000
F807C7E0000000
F807CFC0000000
FFFFCF80000000
FFFFDF80000000
7FFFBF00000000
7FFF3F00000000
1FFE7E00000000
00007C00000000
0000FC00000000
0001F800000000
0001F800000000
0003F000000000
0003E1FF003FE0
0007EFFFE1FFFC
000FDFFFF3FFFE
000FDFFFF3FFFE
001FBFFFF3FFFF
001F3E00FBE01F
003F3E00FBE01F
007E3E00FBE01F
007E3E00FBE01F
01FC3E00FBE01F
03F83E00FBE01F
07F83FFFFBFFFF
07F01FFFF3FFFE
07C01FFFF3FFFE
07C00FFFE1FFFC
07C007FFC0FFF8
ENDCHAR
STARTCHAR 2039
ENCODING 8249
SWIDTH 326 0
DWIDTH 17 0
BBX 14 20 2 5
BITMAP
01FC
01F8
03F0
07E0
0FC0
1FC0
7F80
FF00
FE00
FC00
FC00
FE00
FF00
7F00
3F80
0FC0
07E0
03F0
03F8
01F8
ENDCHAR
STARTCHAR 203A
ENCODING 8250
SWIDTH 326 0
DWIDTH 17 0
BBX 14 20 2 5
BITMAP
FC00
7E00
3F00
1F80
0FC0
0FE0
07F8
03FC
01FC
00FC
00FC
01FC
03FC
03F8
07F0
0FC0
1F80
3F80
7F00
7E00
ENDCHAR
STARTCHAR 2044
ENCODING 8260
SWIDTH 461 0
DWIDTH 24 0
BBX 20 37 2 0
BITMAP
0001F0
0001F0
0001F0
0007F0
0007F0
000FE0
000FE0
000F80
001F80
001F00
003F00
003E00
003E00
007E00
007C00
007C00
00F800
00F800
01F800
01F000
01F000
03E000
03E000
07E000
07C000
07C000
0FC000
0F8000
1F8000
1F0000
3F0000
7F0000
FE0000
FE0000
F80000
F80000
F80000
ENDCHAR
STARTCHAR 2122
ENCODING 8482
SWIDTH 673 0
DWIDTH 35 0
BBX 31 15 2 22
BITMAP
FFF9800C
FFFBC01E
FFFBE03E
0703E03E
0703F07E
0703F07E
0703B07E
0703B8EE
0703B8EE
07039DCE
07039DCE
07038F8E
07038F8E
07038F8E
0703870E
ENDCHAR
STARTCHAR 2126
ENCODING 8486
SWIDTH 673 0
DWIDTH 35 0
BBX 31 37 2 0
BITMAP
0FFFFFE0
3FFFFFF8
7FFFFFFC
FFFFFFFE
FFFFFFFE
F800003E
F800003E
F800003E
F800003E
F800003E
F800003E
F800003E
F800003E
F800003E
F800003E
F800003E
F800003E
F800003E
F800003E
F800003E
F800003E
F800003E
F800003E
F800003E
F800003E
F800003E
F800003E
FFF83FFE
FFFC7FFE
7FFEFFFC
3FFEFFF8
0FFEFFE0
FFFEFFFE
FFFEFFFE
FFFCFFFE
FFFC7FFE
FFF01FFE
ENDCHAR
STARTCHAR 2202
ENCODING 8706
SWIDTH 846 0
DWIDTH 44 0
BBX 44 37 -2 0
BITMAP
FC00030001F0
7C001FC001F0
7E001FE001F0
3E003FF001F0
3E003FF001F0
3F003FF001F0
1F003FF801F0
1F003EF801F0
1F803EF801F0
0F803E7C01F0
0F803E7C01F0
07C03E7E01F0
07C03E3E01F0
07E03E3E01F0
03E03E1F01F0
03E03E1F01F0
03F03E1F01F0
01F03E0F81F0
01F03E0F81F0
00F83E07C1F0
00F83E07C1F0
00F83E07C1F0
007C3E03E1F0
007C3E03E1F0
007E3E03F1F0
003E3E01F1F0
003E3E01F1F0
001F3E00F9F0
001F3E00F9F0
001F3E00FDF0
000FBE007DF0
000FBE007DF0
000FFE003FF0
0007FC003FF0
0007FC003FE0
0003F8001FC0
0001F0000F80
ENDCHAR
STARTCHAR 2206
ENCODING 8710
SWIDTH 653 0
DWIDTH 34 0
BBX 34 37 1 0
BITMAP
0000001FC0
0000003F80
0000007F00
000000FE00
000001FC00
000001F800
000003F800
000007F000
00000FE000
00001FC000
00003F8000
00007F0000
0000FE0000
0000FC0000
0001F80000
0003F80000
0007F00000
000FE00000
001FC00000
003F800000
007F000000
007E000000
00FC000000
01FC000000
03F8000000
07F0000000
0FE0000000
3FC0000000
7F80000000
7F00000000
FE00000000
FC00000000
FFFFFFFE00
FFFFFFFE00
7FFFFFFE00
7FFFFFFE00
1FFFFFFE00
ENDCHAR
STARTCHAR 220F
ENCODING 8719
SWIDTH 692 0
DWIDTH 36 0
BBX 33 37 1 0
BITMAP
0000003800
000000FE00
000001FF00
000001FF80
000001FF80
000003FF80
000007FF80
000007EF80
00000FCF80
00001F8F80
00003F8F80
00003F0F80
00007E0F80
0000FC0F80
0001FC0F80
0001F80F80
0003F00F80
0007F00F80
0007E00F80
000FC00F80
001F800F80
003FFFFF80
003FFFFF80
007FFFFF80
00FFFFFF80
00FFFFFF80
01F8000F80
03F0000F80
07F0000F80
07E0000F80
0FC0000F80
1F80000F80
3F80000F80
3F00000F80
7E00000F80
FE00000F80
FC00000F80
ENDCHAR
STARTCHAR 2211
ENCODING 8721
SWIDTH 673 0
DWIDTH 35 0
BBX 31 37 2 0
BITMAP
0FFFFFE0
3FFFFFF8
7FFFFFFC
FFFFFFFE
FFFFFFFE
F800003E
FE000000
FF800000
7FE00000
3FF80000
0FFE0000
03FF8000
00FFE000
003FF800
000FFF00
0003FF80
0000FF80
00003FC0
000007C0
00001FC0
00007F80
0001FF80
0007FF00
001FFC00
007FF000
01FFC000
07FF0000
3FFC0000
7FF00000
FFC00000
FF000000
FC00003E
FFFFFFFE
FFFFFFFE
FFFFFFFC
7FFFFFFC
1FFFFFF0
ENDCHAR
STARTCHAR 2219
ENCODING 8729
SWIDTH 192 0
DWIDTH 10 0
BBX 6 7 2 11
BITMAP
FC
FC
FC
FC
FC
FC
FC
ENDCHAR
STARTCHAR 221A
ENCODING 8730
SWIDTH 673 0
DWIDTH 35 0
BBX 34 37 2 0
BITMAP
0000000FC0
0000001FC0
0000003F80
0000007F00
000000FE00
000001FC00
000003F800
000007F000
00000FE000
00001FC000
00001F8000
00003F0000
00007E0000
0000FE0000
0001FC0000
0003F80000
0007FFFE00
000FFFFE00
001FFFFE00
003FFFFE00
007FFFFE00
007E000000
00FC000000
01FC000000
03F8000000
07F0000000
0FE0000000
3FC0000000
7F80000000
FF00000000
FE00000000
FC00000000
FFFFFFFE00
FFFFFFFE00
FFFFFFFE00
7FFFFFFE00
1FFFFFFE00
ENDCHAR
STARTCHAR 221E
ENCODING 8734
SWIDTH 1038 0
DWIDTH 54 0
BBX 50 23 2 3
BITMAP
1FFFC000FFFE00
7FFFE001FFFF80
7FFFF003FFFF80
FFFFF807FFFFC0
FFFFF807FFFFC0
F800FC0FC007C0
F800FE1FC007C0
F8007F3F8007C0
F8003FFF0007C0
F8001FFE0007C0
F8000FFC0007C0
F80007F80007C0
F80007F80007C0
F8000FFC0007C0
F8001FFE0007C0
F8007FFF8007C0
F800FF3FC007C0
F800FE0FC007C0
FFFFFC07FFFFC0
FFFFF807FFFFC0
FFFFF003FFFFC0
7FFFF003FFFF80
3FFFC000FFFF00
ENDCHAR
STARTCHAR 222B
ENCODING 8747
SWIDTH 634 0
DWIDTH 33 0
BBX 33 37 1 0
BITMAP
F800001F80
F800003F80
F800003F00
F800007E00
F80000FC00
F80001FC00
F80001F800
F80003F000
F80007E000
F80007E000
F8000FC000
F8001F8000
F8003F8000
F8003F0000
F8007E0000
F800FC0000
F801FC0000
F801F80000
F803F00000
F807F00000
F807E00000
F80FC00000
F81F800000
F83F800000
F83F000000
F87E000000
F8FE000000
F8FC000000
F9F8000000
FBF0000000
FFF0000000
FFE0000000
FFC0000000
FFC0000000
FF80000000
7F80000000
1E00000000
ENDCHAR
STARTCHAR 2248
ENCODING 8776
SWIDTH 653 0
DWIDTH 34 0
BBX 30 25 2 4
BITMAP
03F80000
07FC0000
07FC0000
07FE0030
0FBF0078
1FBF80FC
3F9FC1FC
7F0FE7F8
FE07FFF0
7CE3FFE0
3BF9FFC0
17FDFF80
07FCFF20
0FFEFF70
1FBF3CF8
3FBF81FC
7F1FC3F8
FE0FE7F0
FC07FFE0
7803FFC0
3001FF80
0001FF80
0000FF00
00007F00
00000800
ENDCHAR
STARTCHAR 2260
ENCODING 8800
SWIDTH 461 0
DWIDTH 24 0
BBX 20 37 2 0
BITMAP
0001F0
0001F0
0001F0
0007F0
0007F0
000FE0
000FE0
000F80
001F80
001F00
FFFFF0
FFFFF0
FFFFF0
FFFFF0
FFFFF0
007C00
00F800
00F800
01F800
01F000
01F000
03FFF0
FFFFF0
FFFFF0
FFFFF0
FFFFF0
FF8000
0F8000
1F8000
1F0000
3F0000
7F0000
FE0000
FE0000
F80000
F80000
F80000
ENDCHAR
STARTCHAR 2264
ENCODING 8804
SWIDTH 326 0
DWIDTH 17 0
BBX 14 27 2 1
BITMAP
01FC
03F8
03F0
07E0
0FC0
3F80
7F80
FF00
FE00
FC00
FC00
FE00
FF00
7F00
3F80
0FC0
07E0
03F0
03F8
01F8
0000
0000
FFFC
FFFC
FFFC
FFFC
FFFC
ENDCHAR
STARTCHAR 2265
ENCODING 8805
SWIDTH 326 0
DWIDTH 17 0
BBX 14 27 2 1
BITMAP
7E00
7F00
3F00
1F80
0FC0
07F0
07F8
03FC
01FC
00FC
00FC
01FC
03FC
03F8
07F0
0FC0
1F80
3F00
7F00
7E00
0000
0000
FFFC
FFFC
FFFC
FFFC
FFFC
ENDCHAR
STARTCHAR 22F2
ENCODING 8946
SWIDTH 653 0
DWIDTH 34 0
BBX 30 25 2 4
BITMAP
03F80000
07FC0000
07FC0000
07FE0030
0FBF0078
1FBF80FC
3F9FC1FC
7F0FE7F8
FE07FFF0
7CE3FFE0
3BF9FFC0
17FDFF80
07FCFF20
0FFEFF70
1FBF3CF8
3FBF81FC
7F1FC3F8
FE0FE7F0
FC07FFE0
7803FFC0
3001FF80
0001FF80
0000FF00
00007F00
00000800
ENDCHAR
STARTCHAR 25CA
ENCODING 9674
SWIDTH 711 0
DWIDTH 37 0
BBX 0 0 0 0
BITMAP
ENDCHAR
STARTCHAR F000
ENCODING 61440
SWIDTH 538 0
DWIDTH 28 0
BBX 24 37 2 1
BITMAP
000FFE
001C07
001001
1E3001
1E7803
1FFFFF
7FFFFF
FFFFFF
FFFFFF
FFFFFF
FFFFFF
FFFFFF
FFFFFF
FFFFFF
FFFFFF
FFFFFF
FFFFFF
FFFFFF
FFFFFF
FFFFFF
FFFFFF
FFFFFF
FFFFFF
FFFFFF
FFFFFF
FFFFFF
FFFFFF
FFFFFF
FFFFFF
FFFFFF
FFFFFF
FFFFFF
FFFFFF
FFFFFF
FFFFFF
FFFFFF
7FFFFE
ENDCHAR
STARTCHAR F001
ENCODING 61441
SWIDTH 653 0
DWIDTH 34 0
BBX 30 45 2 -9
BITMAP
0000007C
0000007C
0000007C
0000007C
0000007C
00000000
00000000
00000000
07FFFFFC
3FFFFFFC
7FFFFFFC
FFFFFFFC
FFFFFFFC
F800007C
F800007C
F800007C
F800007C
F800007C
F800007C
F800007C
F800007C
F800007C
F800007C
F800007C
F800007C
F800007C
F800007C
F800007C
F800007C
F800007C
F800007C
F800007C
FFFFFF7C
FFFFFF7C
FFFFFF7C
FFFFFF7C
FFFFFF7C
F8000000
F8000000
F8000000
F8000000
F8000000
F8000000
F8000000
F8000000
ENDCHAR
STARTCHAR F002
ENCODING 61442
SWIDTH 653 0
DWIDTH 34 0
BBX 30 45 2 -9
BITMAP
0000007C
0000007C
0000007C
0000007C
0000007C
0000007C
0000007C
0000007C
0000007C
3FFFFFFC
7FFFFFFC
FFFFFFFC
FFFFFFFC
F800007C
F800007C
F800007C
F800007C
F800007C
F800007C
F800007C
F800007C
F800007C
F800007C
F800007C
F800007C
F800007C
F800007C
F800007C
F800007C
F800007C
F800007C
F800007C
FFFFFF7C
FFFFFF7C
FFFFFF7C
FFFFFF7C
FFFFFF7C
F8000000
F8000000
F8000000
F8000000
F8000000
F8000000
F8000000
F8000000
ENDCHAR
ENDFONT
